%TF.GenerationSoftware,KiCad,Pcbnew,(5.1.2)-1*%
%TF.CreationDate,2022-02-23T12:59:25-06:00*%
%TF.ProjectId,final project circ 1,66696e61-6c20-4707-926f-6a6563742063,rev?*%
%TF.SameCoordinates,Original*%
%TF.FileFunction,Soldermask,Bot*%
%TF.FilePolarity,Negative*%
%FSLAX46Y46*%
G04 Gerber Fmt 4.6, Leading zero omitted, Abs format (unit mm)*
G04 Created by KiCad (PCBNEW (5.1.2)-1) date 2022-02-23 12:59:25*
%MOMM*%
%LPD*%
G04 APERTURE LIST*
%ADD10C,4.000500*%
%ADD11C,1.600000*%
%ADD12R,1.600000X1.600000*%
%ADD13C,1.200000*%
%ADD14C,2.000000*%
%ADD15C,2.400000*%
%ADD16R,2.400000X2.400000*%
%ADD17C,2.500000*%
%ADD18O,1.600000X1.600000*%
%ADD19O,2.200000X2.200000*%
%ADD20R,2.200000X2.200000*%
%ADD21O,1.250000X0.950000*%
%ADD22O,0.890000X1.550000*%
%ADD23R,1.700000X1.700000*%
%ADD24O,1.700000X1.700000*%
%ADD25R,1.905000X2.000000*%
%ADD26O,1.905000X2.000000*%
G04 APERTURE END LIST*
D10*
%TO.C,G1*%
X161400000Y-57200000D03*
%TD*%
D11*
%TO.C,C13*%
X127600000Y-76700000D03*
D12*
X127600000Y-74200000D03*
%TD*%
D13*
%TO.C,J11*%
X139500000Y-82700000D03*
X135000000Y-82700000D03*
X139500000Y-89200000D03*
X135000000Y-89200000D03*
%TD*%
D14*
%TO.C,B1*%
X149400000Y-57300000D03*
X144400000Y-57300000D03*
X139400000Y-57300000D03*
X134400000Y-57300000D03*
%TD*%
D15*
%TO.C,C12*%
X118900000Y-87600000D03*
D16*
X118900000Y-80100000D03*
%TD*%
D17*
%TO.C,U7*%
X150000000Y-71600000D03*
X148000000Y-77600000D03*
X148000000Y-65600000D03*
X135800000Y-65600000D03*
X135800000Y-77600000D03*
%TD*%
D12*
%TO.C,A1*%
X187400000Y-134100000D03*
D18*
X174700000Y-116320000D03*
X187400000Y-131560000D03*
X174700000Y-118860000D03*
X187400000Y-129020000D03*
X174700000Y-121400000D03*
X187400000Y-126480000D03*
X174700000Y-123940000D03*
X187400000Y-123940000D03*
X174700000Y-126480000D03*
X187400000Y-121400000D03*
X174700000Y-129020000D03*
X187400000Y-118860000D03*
X174700000Y-131560000D03*
X187400000Y-116320000D03*
X174700000Y-134100000D03*
%TD*%
%TO.C,A2*%
X174200000Y-78600000D03*
X186900000Y-60820000D03*
X174200000Y-76060000D03*
X186900000Y-63360000D03*
X174200000Y-73520000D03*
X186900000Y-65900000D03*
X174200000Y-70980000D03*
X186900000Y-68440000D03*
X174200000Y-68440000D03*
X186900000Y-70980000D03*
X174200000Y-65900000D03*
X186900000Y-73520000D03*
X174200000Y-63360000D03*
X186900000Y-76060000D03*
X174200000Y-60820000D03*
D12*
X186900000Y-78600000D03*
%TD*%
D11*
%TO.C,C8*%
X99900000Y-87600000D03*
D12*
X99900000Y-90100000D03*
%TD*%
%TO.C,C9*%
X123150000Y-97100000D03*
D11*
X123150000Y-94600000D03*
%TD*%
%TO.C,C10*%
X107650000Y-87850000D03*
D12*
X107650000Y-90350000D03*
%TD*%
D15*
%TO.C,C11*%
X99900000Y-76100000D03*
D16*
X107400000Y-76100000D03*
%TD*%
D19*
%TO.C,D1*%
X97240000Y-58600000D03*
D20*
X107400000Y-58600000D03*
%TD*%
%TO.C,D2*%
X107400000Y-54900000D03*
D19*
X97240000Y-54900000D03*
%TD*%
%TO.C,D3*%
X110540000Y-58600000D03*
D20*
X120700000Y-58600000D03*
%TD*%
%TO.C,D4*%
X120650000Y-54900000D03*
D19*
X110490000Y-54900000D03*
%TD*%
D20*
%TO.C,D5*%
X107400000Y-62850000D03*
D19*
X97240000Y-62850000D03*
%TD*%
D21*
%TO.C,J1*%
X160900000Y-147900000D03*
X165900000Y-147900000D03*
D22*
X159900000Y-150600000D03*
X166900000Y-150600000D03*
%TD*%
D23*
%TO.C,J3*%
X191900000Y-129600000D03*
D24*
X191900000Y-127060000D03*
X191900000Y-124520000D03*
X191900000Y-121980000D03*
%TD*%
%TO.C,J4*%
X191400000Y-66980000D03*
X191400000Y-69520000D03*
X191400000Y-72060000D03*
D23*
X191400000Y-74600000D03*
%TD*%
D24*
%TO.C,J5*%
X183440000Y-55100000D03*
D23*
X178360000Y-55100000D03*
D24*
X180900000Y-55100000D03*
%TD*%
%TO.C,J6*%
X161000000Y-68200000D03*
D23*
X163540000Y-68200000D03*
D24*
X158460000Y-68200000D03*
%TD*%
D23*
%TO.C,J7*%
X142900000Y-88100000D03*
D24*
X145440000Y-88100000D03*
X147980000Y-88100000D03*
X150520000Y-88100000D03*
%TD*%
D13*
%TO.C,J8*%
X123810000Y-141330000D03*
X119310000Y-141330000D03*
X123810000Y-147830000D03*
X119310000Y-147830000D03*
%TD*%
%TO.C,J9*%
X136400000Y-138100000D03*
X140900000Y-138100000D03*
X136400000Y-131600000D03*
X140900000Y-131600000D03*
%TD*%
%TO.C,J10*%
X114400000Y-141600000D03*
X109900000Y-141600000D03*
X114400000Y-148100000D03*
X109900000Y-148100000D03*
%TD*%
D23*
%TO.C,PWM1*%
X188400000Y-140100000D03*
D24*
X188400000Y-142640000D03*
%TD*%
%TO.C,PWM2*%
X179860000Y-142600000D03*
D23*
X182400000Y-142600000D03*
%TD*%
D25*
%TO.C,Q6*%
X121400000Y-70600000D03*
D26*
X118860000Y-70600000D03*
X116320000Y-70600000D03*
%TD*%
D11*
%TO.C,R8*%
X123400000Y-63100000D03*
D18*
X110700000Y-63100000D03*
%TD*%
D13*
%TO.C,SW1*%
X133420000Y-141700000D03*
X128920000Y-141700000D03*
X133420000Y-148200000D03*
X128920000Y-148200000D03*
%TD*%
%TO.C,SW2*%
X136400000Y-148600000D03*
X140900000Y-148600000D03*
X136400000Y-142100000D03*
X140900000Y-142100000D03*
%TD*%
D23*
%TO.C,J12*%
X139900000Y-112100000D03*
D24*
X142440000Y-112100000D03*
%TD*%
M02*
