M48
; DRILL file {KiCad (5.1.2)-1} date 2/24/2022 2:14:48 PM
; FORMAT={-:-/ absolute / inch / decimal}
; #@! TF.CreationDate,2022-02-24T14:14:48-06:00
; #@! TF.GenerationSoftware,Kicad,Pcbnew,(5.1.2)-1
FMAT,2
INCH
T1C0.0157
T2C0.0197
T3C0.0217
T4C0.0315
T5C0.0354
T6C0.0394
T7C0.0433
T8C0.0472
T9C0.0591
T10C0.0689
T11C0.1378
%
G90
G05
T1
X3.9921Y-4.374
X3.9961Y-4.0276
X4.3071Y-3.878
X4.3661Y-4.5709
X4.422Y-4.6661
X4.4378Y-4.5681
X4.563Y-4.685
X4.622Y-4.3583
X4.7205Y-4.7402
X4.7992Y-4.3976
X5.124Y-4.502
X5.1339Y-4.689
X5.252Y-4.4331
X5.5472Y-4.9134
X5.6772Y-5.2874
X5.7835Y-4.6496
X5.7835Y-4.8465
X5.8228Y-4.8071
X5.8386Y-4.6181
X5.8701Y-4.7795
X5.872Y-3.7539
X5.9016Y-3.7047
X5.9409Y-3.9016
X5.9409Y-3.9409
X5.9409Y-3.9803
X5.9409Y-4.5906
X5.9606Y-4.9449
X5.9803Y-3.6654
X5.9803Y-4.8858
X5.9843Y-5.7126
X6.0Y-4.9843
X6.0315Y-2.4803
X6.0394Y-4.8268
X6.1378Y-3.4685
X6.1496Y-5.2205
X6.1496Y-5.2874
X6.1575Y-4.6102
X6.1654Y-2.5118
X6.2126Y-5.2362
X6.2362Y-4.7087
X6.2362Y-4.748
X6.2598Y-5.7677
X6.2638Y-5.2874
X6.2677Y-4.5512
X6.2953Y-3.7638
X6.315Y-3.6457
X6.3199Y-5.6102
X6.3346Y-3.5669
X6.3346Y-3.7244
X6.3346Y-3.9803
X6.3346Y-4.0787
X6.3346Y-5.2835
X6.378Y-5.2323
X6.3789Y-5.6122
X6.3937Y-3.5669
X6.3937Y-3.7047
X6.3937Y-4.0787
X6.4513Y-3.5684
X6.4774Y-5.7008
X6.4921Y-3.0157
X6.4921Y-3.5669
X6.4921Y-4.0787
X6.5118Y-4.9252
X6.5315Y-4.9646
X6.5394Y-4.2441
X6.5394Y-4.3701
X6.5512Y-3.0157
X6.5512Y-3.5669
X6.5512Y-4.0787
X6.5512Y-4.5906
X6.5709Y-4.4724
X6.5906Y-3.1142
X6.5906Y-4.6693
X6.5984Y-5.7677
X6.6102Y-3.5669
X6.6102Y-4.7283
X6.6299Y-3.0157
X6.6299Y-4.4724
X6.6535Y-5.2323
X6.6604Y-3.5955
X6.689Y-5.8307
X6.7283Y-4.0
X6.8243Y-4.4749
X6.8465Y-3.3701
X6.9418Y-2.7765
X6.9843Y-2.622
X6.9843Y-4.5906
X7.0236Y-4.9449
X7.0354Y-3.1535
X7.063Y-4.4331
X7.0827Y-5.4961
X7.1575Y-3.0787
X7.1811Y-5.4961
X7.2598Y-4.6693
X7.4173Y-3.1929
X7.437Y-4.3937
X7.4961Y-3.3504
T4
X4.3583Y-2.4843
X4.8583Y-2.4843
X6.8583Y-2.3945
X6.8583Y-2.4945
X6.8583Y-2.5945
X6.8583Y-2.6945
X6.8583Y-2.7945
X6.8583Y-2.8945
X6.8583Y-2.9945
X6.8583Y-3.0945
X7.3583Y-2.3945
X7.3583Y-2.4945
X7.3583Y-2.5945
X7.3583Y-2.6945
X7.3583Y-2.7945
X7.3583Y-2.8945
X7.3583Y-2.9945
X7.3583Y-3.0945
X4.2382Y-3.4587
X4.2382Y-3.5571
X3.9331Y-3.4488
X3.9331Y-3.5472
X5.0236Y-2.9213
X5.0236Y-3.0197
X4.8484Y-3.7244
X4.8484Y-3.8228
X6.878Y-4.5795
X6.878Y-4.6795
X6.878Y-4.7795
X6.878Y-4.8795
X6.878Y-4.9795
X6.878Y-5.0795
X6.878Y-5.1795
X6.878Y-5.2795
X7.378Y-4.5795
X7.378Y-4.6795
X7.378Y-4.7795
X7.378Y-4.8795
X7.378Y-4.9795
X7.378Y-5.0795
X7.378Y-5.1795
X7.378Y-5.2795
T5
X4.6972Y-5.5642
X4.6972Y-5.8201
X4.8744Y-5.5642
X4.8744Y-5.8201
X5.315Y-3.2559
X5.315Y-3.5118
X5.4921Y-3.2559
X5.4921Y-3.5118
X5.3701Y-5.1811
X5.3701Y-5.437
X5.5472Y-5.1811
X5.5472Y-5.437
X5.0756Y-5.5787
X5.0756Y-5.8346
X5.2528Y-5.5787
X5.2528Y-5.8346
X4.3268Y-5.5748
X4.3268Y-5.8307
X4.5039Y-5.5748
X4.5039Y-5.8307
X5.3701Y-5.5945
X5.3701Y-5.8504
X5.5472Y-5.5945
X5.5472Y-5.8504
T6
X5.5315Y-3.7362
X5.5315Y-3.8362
X5.5315Y-3.9362
X7.4173Y-5.5157
X7.4173Y-5.6157
X5.626Y-3.4685
X5.726Y-3.4685
X5.826Y-3.4685
X5.926Y-3.4685
X6.2386Y-2.685
X6.3386Y-2.685
X6.4386Y-2.685
X7.0811Y-5.6142
X7.1811Y-5.6142
X7.022Y-2.1693
X7.122Y-2.1693
X7.222Y-2.1693
X5.5079Y-4.4134
X5.6079Y-4.4134
X7.5354Y-2.637
X7.5354Y-2.737
X7.5354Y-2.837
X7.5354Y-2.937
X7.5118Y-4.7748
X7.5118Y-4.8748
X7.5118Y-4.9748
X7.5118Y-5.0748
T7
X4.5795Y-2.7795
X4.6795Y-2.7795
X4.7795Y-2.7795
X3.8283Y-2.4744
X4.2283Y-2.4744
X3.8283Y-2.1614
X4.2283Y-2.1614
X3.8283Y-2.3071
X4.2283Y-2.3071
X4.35Y-2.1614
X4.75Y-2.1614
X4.352Y-2.3071
X4.752Y-2.3071
T8
X4.6811Y-3.1535
X4.6811Y-3.4488
X4.1299Y-5.5433
X4.1299Y-5.6417
X4.1299Y-5.7402
X3.9331Y-2.9961
X4.2283Y-2.9961
T9
X5.3465Y-2.5827
X5.3465Y-3.0551
X5.8268Y-2.5827
X5.8268Y-3.0551
X5.9055Y-2.8189
T10
X5.1378Y-2.2717
X5.3346Y-2.2717
X5.5315Y-2.2717
X5.7283Y-2.2717
X5.9252Y-2.2717
X6.122Y-2.2717
T11
X3.8346Y-5.3819
X3.8346Y-5.9016
T2
G00X6.2953Y-5.9163
M15
G01X6.2953Y-5.9419
M16
G05
G00X6.5709Y-5.9163
M15
G01X6.5709Y-5.9419
M16
G05
T3
G00X6.3287Y-5.8228
M15
G01X6.3406Y-5.8228
M16
G05
G00X6.5256Y-5.8228
M15
G01X6.5374Y-5.8228
M16
G05
T0
M30
