M48
; DRILL file {KiCad 5.1.5+dfsg1-2build2} date Sat 02 Apr 2022 06:44:30 PM CDT
; FORMAT={-:-/ absolute / inch / decimal}
; #@! TF.CreationDate,2022-04-02T18:44:30-05:00
; #@! TF.GenerationSoftware,Kicad,Pcbnew,5.1.5+dfsg1-2build2
; #@! TF.FileFunction,Plated,1,2,PTH
FMAT,2
INCH
T1C0.0118
T2C0.0157
T3C0.0236
T4C0.0300
T5C0.0310
T6C0.0315
T7C0.0354
T8C0.0394
T9C0.0512
T10C0.0551
T11C0.0591
T12C0.0787
T13C0.1142
T14C0.1181
%
G90
G05
T1
X2.536Y-1.76
X2.536Y-1.881
X2.5534Y-1.4356
X2.565Y-1.6805
X2.602Y-1.576
X2.6225Y-1.7325
X2.811Y-1.921
X2.86Y-1.268
X2.863Y-1.922
X2.929Y-0.938
X2.935Y-1.8038
X2.935Y-1.855
X2.94Y-1.08
X3.09Y-1.8531
X3.225Y-1.792
X3.235Y-1.846
X3.242Y-1.567
X3.258Y-1.914
X3.345Y-1.385
X3.359Y-1.656
X3.371Y-1.735
X3.394Y-1.906
X3.414Y-1.837
X3.436Y-1.6886
X3.45Y-1.287
X3.5101Y-1.9598
X3.517Y-1.353
X3.556Y-1.7359
X3.591Y-1.427
X3.6125Y-1.9598
X3.625Y-1.7969
X3.761Y-1.727
X3.772Y-1.921
X3.79Y-1.95
X3.853Y-1.752
X3.873Y-1.723
X3.877Y-1.6896
X3.8988Y-1.5832
X3.909Y-1.637
X3.923Y-1.522
X3.9397Y-1.3423
X3.962Y-1.064
X3.971Y-1.941
X3.985Y-1.427
X3.9872Y-1.321
X3.9965Y-1.093
X4.01Y-1.897
X4.0118Y-1.502
X4.016Y-1.225
X4.035Y-1.359
X4.036Y-1.318
X4.058Y-1.489
X4.0614Y-1.1216
X4.066Y-1.225
X4.067Y-1.039
X4.075Y-1.267
X4.078Y-1.835
X4.08Y-1.318
X4.085Y-1.1471
X4.105Y-1.07
X4.1393Y-1.6452
X4.1534Y-1.3204
X4.183Y-1.0918
X4.222Y-1.483
X4.224Y-1.39
X4.232Y-1.2156
X4.249Y-1.733
X4.285Y-1.393
X4.303Y-1.458
X4.32Y-0.898
X4.33Y-1.2152
X4.352Y-1.459
X4.354Y-1.2936
X4.3575Y-1.9875
X4.3752Y-1.2372
X4.419Y-1.949
X4.421Y-1.177
X4.43Y-1.501
X4.4335Y-1.2292
X4.46Y-1.145
X4.4754Y-1.0924
X4.48Y-0.924
X4.498Y-1.238
X4.5074Y-1.0876
X4.531Y-1.953
X4.5382Y-1.0512
X4.548Y-1.226
X4.5492Y-1.143
X4.602Y-0.184
X4.604Y-1.052
X4.624Y-0.992
X4.651Y-1.095
X4.656Y-1.008
X4.67Y-1.13
X4.695Y-1.056
X4.699Y-1.978
X4.713Y-1.507
X4.721Y-0.742
X4.722Y-0.93
X4.749Y-1.701
X4.763Y-1.995
X4.765Y-0.942
X4.78Y-1.461
X4.781Y-1.274
X4.788Y-0.849
X4.8122Y-0.9722
X4.826Y-1.385
X4.839Y-0.763
X4.842Y-1.998
X4.8426Y-1.252
X4.855Y-1.72
X4.901Y-2.0
X4.91Y0.255
X4.91Y-0.045
X4.91Y-1.345
X4.917Y-1.1953
X4.964Y-1.653
X4.9975Y-2.035
X5.112Y-0.874
X5.1179Y-0.719
X5.1179Y-0.913
X5.1425Y-0.275
X5.1425Y-0.5575
X5.17Y0.1425
X5.175Y-0.5825
X5.181Y0.052
X5.1996Y-1.077
X5.2025Y-0.38
X5.22Y-0.8475
X5.2225Y-0.085
X5.228Y-1.714
X5.231Y-0.668
X5.2325Y-0.755
X5.243Y-1.586
X5.246Y-1.032
X5.277Y-0.781
X5.278Y-0.954
X5.28Y-0.035
X5.28Y-0.395
X5.299Y0.096
X5.302Y-0.82
X5.3175Y-1.71
X5.318Y-0.585
X5.3225Y-1.8075
X5.328Y0.009
X5.342Y-0.324
X5.342Y-1.225
X5.35Y-0.485
X5.36Y-0.878
X5.372Y-0.686
X5.3829Y-1.174
X5.398Y-0.924
X5.401Y-0.48
X5.4075Y-1.7925
X5.425Y0.411
X5.441Y-0.614
X5.445Y-1.9225
X5.454Y-0.4056
X5.463Y-1.357
X5.497Y-0.628
X5.502Y-1.279
X5.52Y-0.557
X5.692Y-0.473
X5.698Y-0.366
X5.703Y-0.29
X5.704Y-0.536
X5.761Y-0.307
X5.762Y-0.412
X5.8386Y0.111
X5.96Y0.255
X5.96Y-0.145
X5.96Y-0.245
X5.96Y-0.445
X5.972Y0.451
X5.974Y-1.807
X5.976Y-1.648
X6.0005Y-0.9983
X6.0251Y-0.8064
X6.0334Y-0.7416
X6.044Y0.361
X6.046Y-0.143
X6.058Y-0.678
X6.161Y-0.452
X6.195Y-1.69
X6.217Y-0.511
X6.229Y-0.601
T2
X2.5534Y-1.0025
X2.691Y-1.114
X4.91Y-0.145
X4.91Y-0.245
X4.91Y-0.345
X4.91Y-0.445
X4.91Y-0.545
X5.099Y-0.0975
X5.165Y-0.0975
X5.2Y-0.5375
X5.2225Y-0.4575
X5.3075Y-0.4825
X5.96Y0.355
X5.96Y-0.745
T3
X4.7075Y0.4716
X4.7075Y0.4125
T4
X5.5925Y-1.1625
X5.5925Y-1.2625
X5.5925Y-1.3625
X5.5925Y-1.4625
X5.5925Y-1.5625
X5.5925Y-1.6625
X5.5925Y-1.7625
X5.5925Y-1.8625
X6.0925Y-1.1625
X6.0925Y-1.2625
X6.0925Y-1.3625
X6.0925Y-1.4625
X6.0925Y-1.5625
X6.0925Y-1.6625
X6.0925Y-1.7625
X6.0925Y-1.8625
X4.795Y0.309
X4.795Y0.0925
X5.5925Y0.51
X5.5925Y0.41
X5.5925Y0.31
X5.5925Y0.21
X5.5925Y0.11
X5.5925Y0.01
X5.5925Y-0.09
X5.5925Y-0.19
X6.0925Y0.51
X6.0925Y0.41
X6.0925Y0.31
X6.0925Y0.21
X6.0925Y0.11
X6.0925Y0.01
X6.0925Y-0.09
X6.0925Y-0.19
X4.985Y0.455
X4.985Y0.355
X4.985Y0.255
X4.985Y0.155
X4.985Y0.055
X4.985Y-0.045
X4.985Y-0.145
X4.985Y-0.245
X4.985Y-0.345
X4.985Y-0.445
X4.985Y-0.545
X4.985Y-0.645
X4.985Y-0.745
X4.985Y-0.845
X4.985Y-0.945
X4.985Y-1.045
X4.985Y-1.145
X4.985Y-1.245
X4.985Y-1.345
X5.885Y0.455
X5.885Y0.355
X5.885Y0.255
X5.885Y0.155
X5.885Y0.055
X5.885Y-0.045
X5.885Y-0.145
X5.885Y-0.245
X5.885Y-0.345
X5.885Y-0.445
X5.885Y-0.545
X5.885Y-0.645
X5.885Y-0.745
X5.885Y-0.845
X5.885Y-0.945
X5.885Y-1.045
X5.885Y-1.145
X5.885Y-1.245
X5.885Y-1.345
X5.5925Y-0.3302
X5.5925Y-0.4302
X5.5925Y-0.5302
X5.5925Y-0.6302
X5.5925Y-0.7302
X5.5925Y-0.8302
X5.5925Y-0.9302
X5.5925Y-1.0302
X6.0925Y-0.3302
X6.0925Y-0.4302
X6.0925Y-0.5302
X6.0925Y-0.6302
X6.0925Y-0.7302
X6.0925Y-0.8302
X6.0925Y-0.9302
X6.0925Y-1.0302
T5
X4.38Y-1.585
X4.38Y-1.885
X4.48Y-1.585
X4.48Y-1.885
X4.58Y-1.585
X4.58Y-1.885
X4.68Y-1.585
X4.68Y-1.885
X4.78Y-1.585
X4.78Y-1.885
X4.88Y-1.585
X4.88Y-1.885
X4.98Y-1.585
X4.98Y-1.885
X5.08Y-1.585
X5.08Y-1.885
T6
X3.815Y-0.655
X3.815Y-0.955
X4.02Y-0.785
X4.32Y-0.785
X3.9675Y-1.2725
X3.9675Y-1.5725
X4.69Y0.3075
X4.69Y0.0075
X4.69Y-0.0775
X4.69Y-0.3775
T7
X2.5475Y-1.5475
X2.8475Y-1.5475
X3.81Y-1.27
X3.81Y-1.57
X3.1975Y-1.6675
X3.1975Y-1.9675
T8
X2.604Y-1.103
X5.6975Y-2.12
X5.7975Y-2.12
X5.8975Y-2.12
X4.1475Y-2.12
X4.2475Y-2.12
X6.3275Y-1.77
X6.3275Y-1.87
X6.3275Y-1.97
X6.3275Y-0.3512
X6.3275Y-0.4512
X6.3275Y-0.5512
X6.3275Y-0.6512
X6.3275Y-1.3625
X6.3275Y-1.4625
X6.3275Y-1.5625
X3.8375Y-2.12
X3.9375Y-2.12
X5.0775Y-2.12
X5.1775Y-2.12
X6.3275Y-0.8562
X6.3275Y-0.9562
X6.3275Y-1.0562
X6.3275Y-1.1562
X6.1075Y-2.12
X6.2075Y-2.12
X6.3075Y-2.12
X2.9075Y-2.12
X3.0075Y-2.12
X4.2075Y-1.3225
X4.3075Y-1.3225
X4.4075Y-1.3225
X4.5075Y-1.3225
X4.6075Y-1.3225
X4.7075Y-1.3225
X4.4575Y-2.12
X4.5575Y-2.12
X3.2175Y-2.12
X3.3175Y-2.12
X5.3875Y-2.12
X5.4875Y-2.12
X6.3275Y0.1563
X6.3275Y0.0563
X6.3275Y-0.0437
X6.3275Y-0.1437
X3.5482Y-1.0618
X3.5482Y-1.5343
X4.7675Y-2.12
X4.8675Y-2.12
X4.435Y-0.785
X4.535Y-0.785
X3.5275Y-2.12
X3.6275Y-2.12
X2.5975Y-2.12
X2.6975Y-2.12
T9
X3.0679Y-1.0618
X3.625Y-1.3
T10
X3.405Y0.395
X3.405Y-0.405
T11
X2.6783Y0.3949
X2.6783Y-0.424
X4.45Y-0.1091
X4.45Y-0.424
T12
X3.5525Y-0.6875
X3.5525Y-0.8529
T13
X2.5534Y-1.219
X2.7306Y-1.219
T14
X2.6Y-0.66
X2.7575Y-0.8175
X2.915Y-0.66
X3.065Y-0.855
X3.2225Y-0.6975
X3.38Y-0.855
T0
M30
