G04 #@! TF.GenerationSoftware,KiCad,Pcbnew,5.1.5+dfsg1-2build2*
G04 #@! TF.CreationDate,2022-04-02T18:44:24-05:00*
G04 #@! TF.ProjectId,caden_final,63616465-6e5f-4666-996e-616c2e6b6963,rev?*
G04 #@! TF.SameCoordinates,Original*
G04 #@! TF.FileFunction,Legend,Top*
G04 #@! TF.FilePolarity,Positive*
%FSLAX46Y46*%
G04 Gerber Fmt 4.6, Leading zero omitted, Abs format (unit mm)*
G04 Created by KiCad (PCBNEW 5.1.5+dfsg1-2build2) date 2022-04-02 18:44:24*
%MOMM*%
%LPD*%
G04 APERTURE LIST*
%ADD10C,0.120000*%
%ADD11C,0.152400*%
%ADD12C,0.150000*%
G04 APERTURE END LIST*
D10*
X112560100Y-30187900D02*
X112560100Y-29692539D01*
X112560100Y-24777700D02*
X112064739Y-24777700D01*
X107149900Y-24777700D02*
X107149900Y-25273061D01*
X107149900Y-30187900D02*
X107645261Y-30187900D01*
X112064739Y-30187900D02*
X112560100Y-30187900D01*
X112560100Y-25273061D02*
X112560100Y-24777700D01*
X107645261Y-24777700D02*
X107149900Y-24777700D01*
X107149900Y-29692539D02*
X107149900Y-30187900D01*
X120793000Y1349500D02*
X122793000Y1349500D01*
X122793000Y1349500D02*
X122793000Y8849500D01*
X122793000Y8849500D02*
X120793000Y8849500D01*
X120793000Y8849500D02*
X120793000Y1349500D01*
X121690500Y11227500D02*
G75*
G03X121690500Y11227500I-2120000J0D01*
G01*
X120410500Y11227500D02*
X121650500Y11227500D01*
X117490500Y11227500D02*
X118730500Y11227500D01*
X120410500Y11267500D02*
X121650500Y11267500D01*
X117490500Y11267500D02*
X118730500Y11267500D01*
X120410500Y11307500D02*
X121649500Y11307500D01*
X117491500Y11307500D02*
X118730500Y11307500D01*
X117493500Y11347500D02*
X118730500Y11347500D01*
X120410500Y11347500D02*
X121647500Y11347500D01*
X117496500Y11387500D02*
X118730500Y11387500D01*
X120410500Y11387500D02*
X121644500Y11387500D01*
X117499500Y11427500D02*
X118730500Y11427500D01*
X120410500Y11427500D02*
X121641500Y11427500D01*
X117503500Y11467500D02*
X118730500Y11467500D01*
X120410500Y11467500D02*
X121637500Y11467500D01*
X117508500Y11507500D02*
X118730500Y11507500D01*
X120410500Y11507500D02*
X121632500Y11507500D01*
X117514500Y11547500D02*
X118730500Y11547500D01*
X120410500Y11547500D02*
X121626500Y11547500D01*
X117520500Y11587500D02*
X118730500Y11587500D01*
X120410500Y11587500D02*
X121620500Y11587500D01*
X117528500Y11627500D02*
X118730500Y11627500D01*
X120410500Y11627500D02*
X121612500Y11627500D01*
X117536500Y11667500D02*
X118730500Y11667500D01*
X120410500Y11667500D02*
X121604500Y11667500D01*
X117545500Y11707500D02*
X118730500Y11707500D01*
X120410500Y11707500D02*
X121595500Y11707500D01*
X117554500Y11747500D02*
X118730500Y11747500D01*
X120410500Y11747500D02*
X121586500Y11747500D01*
X117565500Y11787500D02*
X118730500Y11787500D01*
X120410500Y11787500D02*
X121575500Y11787500D01*
X117576500Y11827500D02*
X118730500Y11827500D01*
X120410500Y11827500D02*
X121564500Y11827500D01*
X117588500Y11867500D02*
X118730500Y11867500D01*
X120410500Y11867500D02*
X121552500Y11867500D01*
X117602500Y11907500D02*
X118730500Y11907500D01*
X120410500Y11907500D02*
X121538500Y11907500D01*
X117616500Y11948500D02*
X118730500Y11948500D01*
X120410500Y11948500D02*
X121524500Y11948500D01*
X117630500Y11988500D02*
X118730500Y11988500D01*
X120410500Y11988500D02*
X121510500Y11988500D01*
X117646500Y12028500D02*
X118730500Y12028500D01*
X120410500Y12028500D02*
X121494500Y12028500D01*
X117663500Y12068500D02*
X118730500Y12068500D01*
X120410500Y12068500D02*
X121477500Y12068500D01*
X117681500Y12108500D02*
X118730500Y12108500D01*
X120410500Y12108500D02*
X121459500Y12108500D01*
X117700500Y12148500D02*
X118730500Y12148500D01*
X120410500Y12148500D02*
X121440500Y12148500D01*
X117719500Y12188500D02*
X118730500Y12188500D01*
X120410500Y12188500D02*
X121421500Y12188500D01*
X117740500Y12228500D02*
X118730500Y12228500D01*
X120410500Y12228500D02*
X121400500Y12228500D01*
X117762500Y12268500D02*
X118730500Y12268500D01*
X120410500Y12268500D02*
X121378500Y12268500D01*
X117785500Y12308500D02*
X118730500Y12308500D01*
X120410500Y12308500D02*
X121355500Y12308500D01*
X117810500Y12348500D02*
X118730500Y12348500D01*
X120410500Y12348500D02*
X121330500Y12348500D01*
X117835500Y12388500D02*
X118730500Y12388500D01*
X120410500Y12388500D02*
X121305500Y12388500D01*
X117862500Y12428500D02*
X118730500Y12428500D01*
X120410500Y12428500D02*
X121278500Y12428500D01*
X117890500Y12468500D02*
X118730500Y12468500D01*
X120410500Y12468500D02*
X121250500Y12468500D01*
X117920500Y12508500D02*
X118730500Y12508500D01*
X120410500Y12508500D02*
X121220500Y12508500D01*
X117951500Y12548500D02*
X118730500Y12548500D01*
X120410500Y12548500D02*
X121189500Y12548500D01*
X117983500Y12588500D02*
X118730500Y12588500D01*
X120410500Y12588500D02*
X121157500Y12588500D01*
X118018500Y12628500D02*
X118730500Y12628500D01*
X120410500Y12628500D02*
X121122500Y12628500D01*
X118054500Y12668500D02*
X118730500Y12668500D01*
X120410500Y12668500D02*
X121086500Y12668500D01*
X118092500Y12708500D02*
X118730500Y12708500D01*
X120410500Y12708500D02*
X121048500Y12708500D01*
X118132500Y12748500D02*
X118730500Y12748500D01*
X120410500Y12748500D02*
X121008500Y12748500D01*
X118174500Y12788500D02*
X118730500Y12788500D01*
X120410500Y12788500D02*
X120966500Y12788500D01*
X118219500Y12828500D02*
X120921500Y12828500D01*
X118266500Y12868500D02*
X120874500Y12868500D01*
X118316500Y12908500D02*
X120824500Y12908500D01*
X118370500Y12948500D02*
X120770500Y12948500D01*
X118428500Y12988500D02*
X120712500Y12988500D01*
X118490500Y13028500D02*
X120650500Y13028500D01*
X118557500Y13068500D02*
X120583500Y13068500D01*
X118630500Y13108500D02*
X120510500Y13108500D01*
X118711500Y13148500D02*
X120429500Y13148500D01*
X118802500Y13188500D02*
X120338500Y13188500D01*
X118906500Y13228500D02*
X120234500Y13228500D01*
X119033500Y13268500D02*
X120107500Y13268500D01*
X119200500Y13308500D02*
X119940500Y13308500D01*
X118375500Y8957699D02*
X118375500Y9357699D01*
X118175500Y9157699D02*
X118575500Y9157699D01*
X120389500Y5510000D02*
X120389500Y2110000D01*
X120389500Y2110000D02*
X117989500Y2110000D01*
X117989500Y2110000D02*
X117989500Y5510000D01*
X117989500Y5510000D02*
X120389500Y5510000D01*
X120189500Y4310000D02*
X119189500Y3310000D01*
X119189500Y3310000D02*
X118189500Y4310000D01*
X118626000Y-6913500D02*
X118626000Y-4313500D01*
X118626000Y-4313500D02*
X119626000Y-4313500D01*
X119626000Y-4313500D02*
X119626000Y-6913500D01*
X119626000Y-6913500D02*
X118626000Y-6913500D01*
X118826000Y-5913500D02*
X119126000Y-5313500D01*
X119126000Y-5313500D02*
X119426000Y-5913500D01*
X111319000Y-18609000D02*
X111319000Y-21269000D01*
X113919000Y-18609000D02*
X111319000Y-18609000D01*
X113919000Y-21269000D02*
X111319000Y-21269000D01*
X113919000Y-18609000D02*
X113919000Y-21269000D01*
X115189000Y-18609000D02*
X116519000Y-18609000D01*
X116519000Y-18609000D02*
X116519000Y-19939000D01*
X120900500Y-34921500D02*
X120900500Y-32261500D01*
X108140500Y-34921500D02*
X120900500Y-34921500D01*
X108140500Y-32261500D02*
X120900500Y-32261500D01*
X108140500Y-34921500D02*
X108140500Y-32261500D01*
X106870500Y-34921500D02*
X105540500Y-34921500D01*
X105540500Y-34921500D02*
X105540500Y-33591500D01*
X93475000Y-31820000D02*
X93475000Y-25220000D01*
X93475000Y-40820000D02*
X93475000Y-34220000D01*
X93475000Y-40820000D02*
X73675000Y-40820000D01*
X73675000Y-40820000D02*
X73675000Y-25220000D01*
X73675000Y-25220000D02*
X93475000Y-25220000D01*
X77925000Y-31520000D02*
X77925000Y-29020000D01*
X88525000Y-26970000D02*
X86025000Y-26970000D01*
X89425000Y-32970000D02*
X90225000Y-32970000D01*
X86025000Y-38970000D02*
X88525000Y-38970000D01*
X82625000Y-32970000D02*
X81125000Y-32970000D01*
X81125000Y-32970000D02*
X76525000Y-35470000D01*
X82625000Y-29370000D02*
X89425000Y-29370000D01*
X82625000Y-32970000D02*
X82625000Y-29370000D01*
X89425000Y-32970000D02*
X89425000Y-29370000D01*
X86025000Y-38970000D02*
X86025000Y-34770000D01*
X86025000Y-31170000D02*
X86025000Y-26970000D01*
X84025000Y-31170000D02*
X88025000Y-34770000D01*
X88025000Y-31170000D02*
X88025000Y-34770000D01*
X88025000Y-34770000D02*
X84025000Y-34770000D01*
X84025000Y-34770000D02*
X84025000Y-31170000D01*
X84025000Y-31170000D02*
X88025000Y-31170000D01*
X101814500Y-32861500D02*
X102144500Y-32861500D01*
X102144500Y-32861500D02*
X102144500Y-39401500D01*
X102144500Y-39401500D02*
X101814500Y-39401500D01*
X99734500Y-32861500D02*
X99404500Y-32861500D01*
X99404500Y-32861500D02*
X99404500Y-39401500D01*
X99404500Y-39401500D02*
X99734500Y-39401500D01*
X102648000Y-18899000D02*
X102648000Y-18569000D01*
X102648000Y-18569000D02*
X109188000Y-18569000D01*
X109188000Y-18569000D02*
X109188000Y-18899000D01*
X102648000Y-20979000D02*
X102648000Y-21309000D01*
X102648000Y-21309000D02*
X109188000Y-21309000D01*
X109188000Y-21309000D02*
X109188000Y-20979000D01*
X95531000Y-23717000D02*
X95861000Y-23717000D01*
X95531000Y-17177000D02*
X95531000Y-23717000D01*
X95861000Y-17177000D02*
X95531000Y-17177000D01*
X98271000Y-23717000D02*
X97941000Y-23717000D01*
X98271000Y-17177000D02*
X98271000Y-23717000D01*
X97941000Y-17177000D02*
X98271000Y-17177000D01*
X101128600Y-28947600D02*
X103028600Y-28947600D01*
X102528600Y-26627600D02*
X101128600Y-26627600D01*
X64630000Y-13970000D02*
X117030000Y-13970000D01*
X117030000Y-13970000D02*
X117030000Y13230000D01*
X117030000Y13230000D02*
X64630000Y13230000D01*
X64630000Y13230000D02*
X64630000Y-13970000D01*
D11*
X129984500Y-47371000D02*
X129984500Y-40767000D01*
X128193431Y-40767000D02*
X127330569Y-40767000D01*
X110299500Y-40767000D02*
X110299500Y-47097835D01*
X112232440Y-47371000D02*
X112953431Y-47371000D01*
X114630569Y-47371000D02*
X115493431Y-47371000D01*
X117170569Y-47371000D02*
X118033431Y-47371000D01*
X119710569Y-47371000D02*
X120573431Y-47371000D01*
X122250569Y-47371000D02*
X123113431Y-47371000D01*
X124790569Y-47371000D02*
X125653431Y-47371000D01*
X127330569Y-47371000D02*
X128193431Y-47371000D01*
X125653431Y-40767000D02*
X124790569Y-40767000D01*
X123113431Y-40767000D02*
X122250569Y-40767000D01*
X120573431Y-40767000D02*
X119710569Y-40767000D01*
X118033431Y-40767000D02*
X117170569Y-40767000D01*
X115493431Y-40767000D02*
X114630569Y-40767000D01*
X112953431Y-40767000D02*
X112090569Y-40767000D01*
X110299500Y-44373800D02*
G75*
G03X110299500Y-43764200I0J304800D01*
G01*
D10*
X64261000Y-42674500D02*
X64131000Y-49974500D01*
X79191000Y-42694500D02*
X64261000Y-42674500D01*
X79191000Y-49974500D02*
X79191000Y-42694500D01*
X64131000Y-49974500D02*
X79191000Y-49974500D01*
X83117500Y-49962000D02*
X98177500Y-49962000D01*
X98177500Y-49962000D02*
X98177500Y-42682000D01*
X98177500Y-42682000D02*
X83247500Y-42662000D01*
X83247500Y-42662000D02*
X83117500Y-49962000D01*
X97914000Y-33348000D02*
X98244000Y-33348000D01*
X98244000Y-33348000D02*
X98244000Y-38788000D01*
X98244000Y-38788000D02*
X97914000Y-38788000D01*
X95634000Y-33348000D02*
X95304000Y-33348000D01*
X95304000Y-33348000D02*
X95304000Y-38788000D01*
X95304000Y-38788000D02*
X95634000Y-38788000D01*
X98244000Y-34248000D02*
X95304000Y-34248000D01*
X98244000Y-34368000D02*
X95304000Y-34368000D01*
X98244000Y-34128000D02*
X95304000Y-34128000D01*
X82686500Y-44224500D02*
X79746500Y-44224500D01*
X82686500Y-44464500D02*
X79746500Y-44464500D01*
X82686500Y-44344500D02*
X79746500Y-44344500D01*
X79746500Y-48884500D02*
X80076500Y-48884500D01*
X79746500Y-43444500D02*
X79746500Y-48884500D01*
X80076500Y-43444500D02*
X79746500Y-43444500D01*
X82686500Y-48884500D02*
X82356500Y-48884500D01*
X82686500Y-43444500D02*
X82686500Y-48884500D01*
X82356500Y-43444500D02*
X82686500Y-43444500D01*
X71236500Y-40446500D02*
X71236500Y-40776500D01*
X71236500Y-40776500D02*
X65796500Y-40776500D01*
X65796500Y-40776500D02*
X65796500Y-40446500D01*
X71236500Y-38166500D02*
X71236500Y-37836500D01*
X71236500Y-37836500D02*
X65796500Y-37836500D01*
X65796500Y-37836500D02*
X65796500Y-38166500D01*
X70336500Y-40776500D02*
X70336500Y-37836500D01*
X70216500Y-40776500D02*
X70216500Y-37836500D01*
X70456500Y-40776500D02*
X70456500Y-37836500D01*
X123779000Y-36903000D02*
X123779000Y14097000D01*
X123779000Y14097000D02*
X152400000Y14097000D01*
X152400000Y14097000D02*
X152400000Y-36877600D01*
X152400000Y-36880800D02*
X123779000Y-36903000D01*
X141779000Y-36903000D02*
X141779000Y-39903000D01*
X141779000Y-39903000D02*
X133779000Y-39903000D01*
X133779000Y-39903000D02*
X133779000Y-36903000D01*
D12*
X105433880Y-28244704D02*
X106243404Y-28244704D01*
X106338642Y-28197085D01*
X106386261Y-28149466D01*
X106433880Y-28054228D01*
X106433880Y-27863752D01*
X106386261Y-27768514D01*
X106338642Y-27720895D01*
X106243404Y-27673276D01*
X105433880Y-27673276D01*
X105529119Y-27244704D02*
X105481500Y-27197085D01*
X105433880Y-27101847D01*
X105433880Y-26863752D01*
X105481500Y-26768514D01*
X105529119Y-26720895D01*
X105624357Y-26673276D01*
X105719595Y-26673276D01*
X105862452Y-26720895D01*
X106433880Y-27292323D01*
X106433880Y-26673276D01*
X114244380Y-30482800D02*
X114244380Y-30958990D01*
X113244380Y-30958990D01*
X113339619Y-30197085D02*
X113292000Y-30149466D01*
X113244380Y-30054228D01*
X113244380Y-29816133D01*
X113292000Y-29720895D01*
X113339619Y-29673276D01*
X113434857Y-29625657D01*
X113530095Y-29625657D01*
X113672952Y-29673276D01*
X114244380Y-30244704D01*
X114244380Y-29625657D01*
X113339619Y-29244704D02*
X113292000Y-29197085D01*
X113244380Y-29101847D01*
X113244380Y-28863752D01*
X113292000Y-28768514D01*
X113339619Y-28720895D01*
X113434857Y-28673276D01*
X113530095Y-28673276D01*
X113672952Y-28720895D01*
X114244380Y-29292323D01*
X114244380Y-28673276D01*
X114244380Y-28197085D02*
X114244380Y-28006609D01*
X114196761Y-27911371D01*
X114149142Y-27863752D01*
X114006285Y-27768514D01*
X113815809Y-27720895D01*
X113434857Y-27720895D01*
X113339619Y-27768514D01*
X113292000Y-27816133D01*
X113244380Y-27911371D01*
X113244380Y-28101847D01*
X113292000Y-28197085D01*
X113339619Y-28244704D01*
X113434857Y-28292323D01*
X113672952Y-28292323D01*
X113768190Y-28244704D01*
X113815809Y-28197085D01*
X113863428Y-28101847D01*
X113863428Y-27911371D01*
X113815809Y-27816133D01*
X113768190Y-27768514D01*
X113672952Y-27720895D01*
X113244380Y-27387561D02*
X113244380Y-26768514D01*
X113625333Y-27101847D01*
X113625333Y-26958990D01*
X113672952Y-26863752D01*
X113720571Y-26816133D01*
X113815809Y-26768514D01*
X114053904Y-26768514D01*
X114149142Y-26816133D01*
X114196761Y-26863752D01*
X114244380Y-26958990D01*
X114244380Y-27244704D01*
X114196761Y-27339942D01*
X114149142Y-27387561D01*
X114339619Y-25673276D02*
X114292000Y-25768514D01*
X114196761Y-25863752D01*
X114053904Y-26006609D01*
X114006285Y-26101847D01*
X114006285Y-26197085D01*
X114244380Y-26149466D02*
X114196761Y-26244704D01*
X114101523Y-26339942D01*
X113911047Y-26387561D01*
X113577714Y-26387561D01*
X113387238Y-26339942D01*
X113292000Y-26244704D01*
X113244380Y-26149466D01*
X113244380Y-25958990D01*
X113292000Y-25863752D01*
X113387238Y-25768514D01*
X113577714Y-25720895D01*
X113911047Y-25720895D01*
X114101523Y-25768514D01*
X114196761Y-25863752D01*
X114244380Y-25958990D01*
X114244380Y-26149466D01*
X113244380Y-25435180D02*
X113244380Y-24863752D01*
X114244380Y-25149466D02*
X113244380Y-25149466D01*
X114244380Y-23958990D02*
X113768190Y-24292323D01*
X114244380Y-24530419D02*
X113244380Y-24530419D01*
X113244380Y-24149466D01*
X113292000Y-24054228D01*
X113339619Y-24006609D01*
X113434857Y-23958990D01*
X113577714Y-23958990D01*
X113672952Y-24006609D01*
X113720571Y-24054228D01*
X113768190Y-24149466D01*
X113768190Y-24530419D01*
X107307380Y-31000700D02*
X107545476Y-31000700D01*
X107450238Y-31238795D02*
X107545476Y-31000700D01*
X107450238Y-30762604D01*
X107735952Y-31143557D02*
X107545476Y-31000700D01*
X107735952Y-30857842D01*
X107307380Y-31000700D02*
X107545476Y-31000700D01*
X107450238Y-31238795D02*
X107545476Y-31000700D01*
X107450238Y-30762604D01*
X107735952Y-31143557D02*
X107545476Y-31000700D01*
X107735952Y-30857842D01*
X158885166Y-48688476D02*
X158885166Y-48212285D01*
X159170880Y-48783714D02*
X158170880Y-48450380D01*
X159170880Y-48117047D01*
X159170880Y-47259904D02*
X159170880Y-47831333D01*
X159170880Y-47545619D02*
X158170880Y-47545619D01*
X158313738Y-47640857D01*
X158408976Y-47736095D01*
X158456595Y-47831333D01*
X158266119Y-46878952D02*
X158218500Y-46831333D01*
X158170880Y-46736095D01*
X158170880Y-46498000D01*
X158218500Y-46402761D01*
X158266119Y-46355142D01*
X158361357Y-46307523D01*
X158456595Y-46307523D01*
X158599452Y-46355142D01*
X159170880Y-46926571D01*
X159170880Y-46307523D01*
X158885166Y-38337976D02*
X158885166Y-37861785D01*
X159170880Y-38433214D02*
X158170880Y-38099880D01*
X159170880Y-37766547D01*
X159170880Y-36909404D02*
X159170880Y-37480833D01*
X159170880Y-37195119D02*
X158170880Y-37195119D01*
X158313738Y-37290357D01*
X158408976Y-37385595D01*
X158456595Y-37480833D01*
X158170880Y-36576071D02*
X158170880Y-35957023D01*
X158551833Y-36290357D01*
X158551833Y-36147500D01*
X158599452Y-36052261D01*
X158647071Y-36004642D01*
X158742309Y-35957023D01*
X158980404Y-35957023D01*
X159075642Y-36004642D01*
X159123261Y-36052261D01*
X159170880Y-36147500D01*
X159170880Y-36433214D01*
X159123261Y-36528452D01*
X159075642Y-36576071D01*
X129833738Y-51976571D02*
X129976595Y-52024190D01*
X130024214Y-52071809D01*
X130071833Y-52167047D01*
X130071833Y-52309904D01*
X130024214Y-52405142D01*
X129976595Y-52452761D01*
X129881357Y-52500380D01*
X129500404Y-52500380D01*
X129500404Y-51500380D01*
X129833738Y-51500380D01*
X129928976Y-51548000D01*
X129976595Y-51595619D01*
X130024214Y-51690857D01*
X130024214Y-51786095D01*
X129976595Y-51881333D01*
X129928976Y-51928952D01*
X129833738Y-51976571D01*
X129500404Y-51976571D01*
X130452785Y-51595619D02*
X130500404Y-51548000D01*
X130595642Y-51500380D01*
X130833738Y-51500380D01*
X130928976Y-51548000D01*
X130976595Y-51595619D01*
X131024214Y-51690857D01*
X131024214Y-51786095D01*
X130976595Y-51928952D01*
X130405166Y-52500380D01*
X131024214Y-52500380D01*
X137707738Y-51976571D02*
X137850595Y-52024190D01*
X137898214Y-52071809D01*
X137945833Y-52167047D01*
X137945833Y-52309904D01*
X137898214Y-52405142D01*
X137850595Y-52452761D01*
X137755357Y-52500380D01*
X137374404Y-52500380D01*
X137374404Y-51500380D01*
X137707738Y-51500380D01*
X137802976Y-51548000D01*
X137850595Y-51595619D01*
X137898214Y-51690857D01*
X137898214Y-51786095D01*
X137850595Y-51881333D01*
X137802976Y-51928952D01*
X137707738Y-51976571D01*
X137374404Y-51976571D01*
X138279166Y-51500380D02*
X138898214Y-51500380D01*
X138564880Y-51881333D01*
X138707738Y-51881333D01*
X138802976Y-51928952D01*
X138850595Y-51976571D01*
X138898214Y-52071809D01*
X138898214Y-52309904D01*
X138850595Y-52405142D01*
X138802976Y-52452761D01*
X138707738Y-52500380D01*
X138422023Y-52500380D01*
X138326785Y-52452761D01*
X138279166Y-52405142D01*
X122150142Y5182833D02*
X122197761Y5135214D01*
X122245380Y4992357D01*
X122245380Y4897119D01*
X122197761Y4754261D01*
X122102523Y4659023D01*
X122007285Y4611404D01*
X121816809Y4563785D01*
X121673952Y4563785D01*
X121483476Y4611404D01*
X121388238Y4659023D01*
X121293000Y4754261D01*
X121245380Y4897119D01*
X121245380Y4992357D01*
X121293000Y5135214D01*
X121340619Y5182833D01*
X122245380Y6135214D02*
X122245380Y5563785D01*
X122245380Y5849500D02*
X121245380Y5849500D01*
X121388238Y5754261D01*
X121483476Y5659023D01*
X121531095Y5563785D01*
X122197857Y11469666D02*
X122150238Y11517285D01*
X122102619Y11660142D01*
X122102619Y11755380D01*
X122150238Y11898238D01*
X122245476Y11993476D01*
X122340714Y12041095D01*
X122531190Y12088714D01*
X122674047Y12088714D01*
X122864523Y12041095D01*
X122959761Y11993476D01*
X123055000Y11898238D01*
X123102619Y11755380D01*
X123102619Y11660142D01*
X123055000Y11517285D01*
X123007380Y11469666D01*
X123007380Y11088714D02*
X123055000Y11041095D01*
X123102619Y10945857D01*
X123102619Y10707761D01*
X123055000Y10612523D01*
X123007380Y10564904D01*
X122912142Y10517285D01*
X122816904Y10517285D01*
X122674047Y10564904D01*
X122102619Y11136333D01*
X122102619Y10517285D01*
X118451404Y5707119D02*
X118451404Y6707119D01*
X118689500Y6707119D01*
X118832357Y6659500D01*
X118927595Y6564261D01*
X118975214Y6469023D01*
X119022833Y6278547D01*
X119022833Y6135690D01*
X118975214Y5945214D01*
X118927595Y5849976D01*
X118832357Y5754738D01*
X118689500Y5707119D01*
X118451404Y5707119D01*
X119356166Y6707119D02*
X119975214Y6707119D01*
X119641880Y6326166D01*
X119784738Y6326166D01*
X119879976Y6278547D01*
X119927595Y6230928D01*
X119975214Y6135690D01*
X119975214Y5897595D01*
X119927595Y5802357D01*
X119879976Y5754738D01*
X119784738Y5707119D01*
X119499023Y5707119D01*
X119403785Y5754738D01*
X119356166Y5802357D01*
X118387904Y-4135380D02*
X118387904Y-3135380D01*
X118626000Y-3135380D01*
X118768857Y-3183000D01*
X118864095Y-3278238D01*
X118911714Y-3373476D01*
X118959333Y-3563952D01*
X118959333Y-3706809D01*
X118911714Y-3897285D01*
X118864095Y-3992523D01*
X118768857Y-4087761D01*
X118626000Y-4135380D01*
X118387904Y-4135380D01*
X119816476Y-3468714D02*
X119816476Y-4135380D01*
X119578380Y-3087761D02*
X119340285Y-3802047D01*
X119959333Y-3802047D01*
X117971380Y-20677095D02*
X116971380Y-20677095D01*
X116971380Y-20439000D01*
X117019000Y-20296142D01*
X117114238Y-20200904D01*
X117209476Y-20153285D01*
X117399952Y-20105666D01*
X117542809Y-20105666D01*
X117733285Y-20153285D01*
X117828523Y-20200904D01*
X117923761Y-20296142D01*
X117971380Y-20439000D01*
X117971380Y-20677095D01*
X116971380Y-19772333D02*
X116971380Y-19105666D01*
X117971380Y-19534238D01*
X156503833Y-51776571D02*
X156837166Y-51776571D01*
X156980023Y-52300380D02*
X156503833Y-52300380D01*
X156503833Y-51300380D01*
X156980023Y-51300380D01*
X157932404Y-52300380D02*
X157360976Y-52300380D01*
X157646690Y-52300380D02*
X157646690Y-51300380D01*
X157551452Y-51443238D01*
X157456214Y-51538476D01*
X157360976Y-51586095D01*
X158551452Y-51300380D02*
X158646690Y-51300380D01*
X158741928Y-51348000D01*
X158789547Y-51395619D01*
X158837166Y-51490857D01*
X158884785Y-51681333D01*
X158884785Y-51919428D01*
X158837166Y-52109904D01*
X158789547Y-52205142D01*
X158741928Y-52252761D01*
X158646690Y-52300380D01*
X158551452Y-52300380D01*
X158456214Y-52252761D01*
X158408595Y-52205142D01*
X158360976Y-52109904D01*
X158313357Y-51919428D01*
X158313357Y-51681333D01*
X158360976Y-51490857D01*
X158408595Y-51395619D01*
X158456214Y-51348000D01*
X158551452Y-51300380D01*
X146089833Y-51776571D02*
X146423166Y-51776571D01*
X146566023Y-52300380D02*
X146089833Y-52300380D01*
X146089833Y-51300380D01*
X146566023Y-51300380D01*
X147518404Y-52300380D02*
X146946976Y-52300380D01*
X147232690Y-52300380D02*
X147232690Y-51300380D01*
X147137452Y-51443238D01*
X147042214Y-51538476D01*
X146946976Y-51586095D01*
X148470785Y-52300380D02*
X147899357Y-52300380D01*
X148185071Y-52300380D02*
X148185071Y-51300380D01*
X148089833Y-51443238D01*
X147994595Y-51538476D01*
X147899357Y-51586095D01*
X92162071Y-20395833D02*
X92162071Y-20729166D01*
X92685880Y-20729166D02*
X91685880Y-20729166D01*
X91685880Y-20252976D01*
X92685880Y-19348214D02*
X92685880Y-19919642D01*
X92685880Y-19633928D02*
X91685880Y-19633928D01*
X91828738Y-19729166D01*
X91923976Y-19824404D01*
X91971595Y-19919642D01*
X64523166Y-29915880D02*
X64523166Y-30630166D01*
X64475547Y-30773023D01*
X64380309Y-30868261D01*
X64237452Y-30915880D01*
X64142214Y-30915880D01*
X65523166Y-30915880D02*
X64951738Y-30915880D01*
X65237452Y-30915880D02*
X65237452Y-29915880D01*
X65142214Y-30058738D01*
X65046976Y-30153976D01*
X64951738Y-30201595D01*
X103992880Y-33924833D02*
X104707166Y-33924833D01*
X104850023Y-33972452D01*
X104945261Y-34067690D01*
X104992880Y-34210547D01*
X104992880Y-34305785D01*
X104088119Y-33496261D02*
X104040500Y-33448642D01*
X103992880Y-33353404D01*
X103992880Y-33115309D01*
X104040500Y-33020071D01*
X104088119Y-32972452D01*
X104183357Y-32924833D01*
X104278595Y-32924833D01*
X104421452Y-32972452D01*
X104992880Y-33543880D01*
X104992880Y-32924833D01*
X81518166Y-23668880D02*
X81518166Y-24383166D01*
X81470547Y-24526023D01*
X81375309Y-24621261D01*
X81232452Y-24668880D01*
X81137214Y-24668880D01*
X81899119Y-23668880D02*
X82518166Y-23668880D01*
X82184833Y-24049833D01*
X82327690Y-24049833D01*
X82422928Y-24097452D01*
X82470547Y-24145071D01*
X82518166Y-24240309D01*
X82518166Y-24478404D01*
X82470547Y-24573642D01*
X82422928Y-24621261D01*
X82327690Y-24668880D01*
X82041976Y-24668880D01*
X81946738Y-24621261D01*
X81899119Y-24573642D01*
X77565785Y-19368880D02*
X77565785Y-18368880D01*
X78137214Y-19368880D01*
X78137214Y-18368880D01*
X81089595Y-14416500D02*
X80994357Y-14368880D01*
X80851500Y-14368880D01*
X80708642Y-14416500D01*
X80613404Y-14511738D01*
X80565785Y-14606976D01*
X80518166Y-14797452D01*
X80518166Y-14940309D01*
X80565785Y-15130785D01*
X80613404Y-15226023D01*
X80708642Y-15321261D01*
X80851500Y-15368880D01*
X80946738Y-15368880D01*
X81089595Y-15321261D01*
X81137214Y-15273642D01*
X81137214Y-14940309D01*
X80946738Y-14940309D01*
X81565785Y-15368880D02*
X81565785Y-14368880D01*
X82137214Y-15368880D01*
X82137214Y-14368880D01*
X82613404Y-15368880D02*
X82613404Y-14368880D01*
X82851500Y-14368880D01*
X82994357Y-14416500D01*
X83089595Y-14511738D01*
X83137214Y-14606976D01*
X83184833Y-14797452D01*
X83184833Y-14940309D01*
X83137214Y-15130785D01*
X83089595Y-15226023D01*
X82994357Y-15321261D01*
X82851500Y-15368880D01*
X82613404Y-15368880D01*
X86161023Y-19368880D02*
X85684833Y-19368880D01*
X85684833Y-18368880D01*
X69516666Y-14882880D02*
X69516666Y-15597166D01*
X69469047Y-15740023D01*
X69373809Y-15835261D01*
X69230952Y-15882880D01*
X69135714Y-15882880D01*
X70421428Y-15216214D02*
X70421428Y-15882880D01*
X70183333Y-14835261D02*
X69945238Y-15549547D01*
X70564285Y-15549547D01*
X66350023Y-20016880D02*
X65873833Y-20016880D01*
X65873833Y-19016880D01*
X69278595Y-23064500D02*
X69183357Y-23016880D01*
X69040500Y-23016880D01*
X68897642Y-23064500D01*
X68802404Y-23159738D01*
X68754785Y-23254976D01*
X68707166Y-23445452D01*
X68707166Y-23588309D01*
X68754785Y-23778785D01*
X68802404Y-23874023D01*
X68897642Y-23969261D01*
X69040500Y-24016880D01*
X69135738Y-24016880D01*
X69278595Y-23969261D01*
X69326214Y-23921642D01*
X69326214Y-23588309D01*
X69135738Y-23588309D01*
X69754785Y-24016880D02*
X69754785Y-23016880D01*
X70326214Y-24016880D01*
X70326214Y-23016880D01*
X70802404Y-24016880D02*
X70802404Y-23016880D01*
X71040500Y-23016880D01*
X71183357Y-23064500D01*
X71278595Y-23159738D01*
X71326214Y-23254976D01*
X71373833Y-23445452D01*
X71373833Y-23588309D01*
X71326214Y-23778785D01*
X71278595Y-23874023D01*
X71183357Y-23969261D01*
X71040500Y-24016880D01*
X70802404Y-24016880D01*
X73754785Y-20016880D02*
X73754785Y-19016880D01*
X74326214Y-20016880D01*
X74326214Y-19016880D01*
X80224404Y-36647380D02*
X80224404Y-35647380D01*
X80795833Y-36647380D02*
X80367261Y-36075952D01*
X80795833Y-35647380D02*
X80224404Y-36218809D01*
X81748214Y-36647380D02*
X81176785Y-36647380D01*
X81462500Y-36647380D02*
X81462500Y-35647380D01*
X81367261Y-35790238D01*
X81272023Y-35885476D01*
X81176785Y-35933095D01*
X64032214Y-52500380D02*
X64032214Y-51500380D01*
X64413166Y-51500380D01*
X64508404Y-51548000D01*
X64556023Y-51595619D01*
X64603642Y-51690857D01*
X64603642Y-51833714D01*
X64556023Y-51928952D01*
X64508404Y-51976571D01*
X64413166Y-52024190D01*
X64032214Y-52024190D01*
X64936976Y-51500380D02*
X65175071Y-52500380D01*
X65365547Y-51786095D01*
X65556023Y-52500380D01*
X65794119Y-51500380D01*
X65936976Y-52595619D02*
X66698880Y-52595619D01*
X66889357Y-52452761D02*
X67032214Y-52500380D01*
X67270309Y-52500380D01*
X67365547Y-52452761D01*
X67413166Y-52405142D01*
X67460785Y-52309904D01*
X67460785Y-52214666D01*
X67413166Y-52119428D01*
X67365547Y-52071809D01*
X67270309Y-52024190D01*
X67079833Y-51976571D01*
X66984595Y-51928952D01*
X66936976Y-51881333D01*
X66889357Y-51786095D01*
X66889357Y-51690857D01*
X66936976Y-51595619D01*
X66984595Y-51548000D01*
X67079833Y-51500380D01*
X67317928Y-51500380D01*
X67460785Y-51548000D01*
X67794119Y-51500380D02*
X68032214Y-52500380D01*
X68222690Y-51786095D01*
X68413166Y-52500380D01*
X68651261Y-51500380D01*
X69556023Y-52500380D02*
X68984595Y-52500380D01*
X69270309Y-52500380D02*
X69270309Y-51500380D01*
X69175071Y-51643238D01*
X69079833Y-51738476D01*
X68984595Y-51786095D01*
X70413166Y-51833714D02*
X70413166Y-52500380D01*
X70175071Y-51452761D02*
X69936976Y-52167047D01*
X70556023Y-52167047D01*
X71906214Y-52500380D02*
X71906214Y-51500380D01*
X72287166Y-51500380D01*
X72382404Y-51548000D01*
X72430023Y-51595619D01*
X72477642Y-51690857D01*
X72477642Y-51833714D01*
X72430023Y-51928952D01*
X72382404Y-51976571D01*
X72287166Y-52024190D01*
X71906214Y-52024190D01*
X72810976Y-51500380D02*
X73049071Y-52500380D01*
X73239547Y-51786095D01*
X73430023Y-52500380D01*
X73668119Y-51500380D01*
X73810976Y-52595619D02*
X74572880Y-52595619D01*
X74763357Y-52452761D02*
X74906214Y-52500380D01*
X75144309Y-52500380D01*
X75239547Y-52452761D01*
X75287166Y-52405142D01*
X75334785Y-52309904D01*
X75334785Y-52214666D01*
X75287166Y-52119428D01*
X75239547Y-52071809D01*
X75144309Y-52024190D01*
X74953833Y-51976571D01*
X74858595Y-51928952D01*
X74810976Y-51881333D01*
X74763357Y-51786095D01*
X74763357Y-51690857D01*
X74810976Y-51595619D01*
X74858595Y-51548000D01*
X74953833Y-51500380D01*
X75191928Y-51500380D01*
X75334785Y-51548000D01*
X75668119Y-51500380D02*
X75906214Y-52500380D01*
X76096690Y-51786095D01*
X76287166Y-52500380D01*
X76525261Y-51500380D01*
X77430023Y-52500380D02*
X76858595Y-52500380D01*
X77144309Y-52500380D02*
X77144309Y-51500380D01*
X77049071Y-51643238D01*
X76953833Y-51738476D01*
X76858595Y-51786095D01*
X78334785Y-51500380D02*
X77858595Y-51500380D01*
X77810976Y-51976571D01*
X77858595Y-51928952D01*
X77953833Y-51881333D01*
X78191928Y-51881333D01*
X78287166Y-51928952D01*
X78334785Y-51976571D01*
X78382404Y-52071809D01*
X78382404Y-52309904D01*
X78334785Y-52405142D01*
X78287166Y-52452761D01*
X78191928Y-52500380D01*
X77953833Y-52500380D01*
X77858595Y-52452761D01*
X77810976Y-52405142D01*
X81113547Y-52500380D02*
X81113547Y-51500380D01*
X81494500Y-51500380D01*
X81589738Y-51548000D01*
X81637357Y-51595619D01*
X81684976Y-51690857D01*
X81684976Y-51833714D01*
X81637357Y-51928952D01*
X81589738Y-51976571D01*
X81494500Y-52024190D01*
X81113547Y-52024190D01*
X82018309Y-51500380D02*
X82256404Y-52500380D01*
X82446880Y-51786095D01*
X82637357Y-52500380D01*
X82875452Y-51500380D01*
X83256404Y-52500380D02*
X83256404Y-51500380D01*
X83589738Y-52214666D01*
X83923071Y-51500380D01*
X83923071Y-52500380D01*
X84875452Y-51500380D02*
X84399261Y-51500380D01*
X84351642Y-51976571D01*
X84399261Y-51928952D01*
X84494500Y-51881333D01*
X84732595Y-51881333D01*
X84827833Y-51928952D01*
X84875452Y-51976571D01*
X84923071Y-52071809D01*
X84923071Y-52309904D01*
X84875452Y-52405142D01*
X84827833Y-52452761D01*
X84732595Y-52500380D01*
X84494500Y-52500380D01*
X84399261Y-52452761D01*
X84351642Y-52405142D01*
X88987547Y-52500380D02*
X88987547Y-51500380D01*
X89368500Y-51500380D01*
X89463738Y-51548000D01*
X89511357Y-51595619D01*
X89558976Y-51690857D01*
X89558976Y-51833714D01*
X89511357Y-51928952D01*
X89463738Y-51976571D01*
X89368500Y-52024190D01*
X88987547Y-52024190D01*
X89892309Y-51500380D02*
X90130404Y-52500380D01*
X90320880Y-51786095D01*
X90511357Y-52500380D01*
X90749452Y-51500380D01*
X91130404Y-52500380D02*
X91130404Y-51500380D01*
X91463738Y-52214666D01*
X91797071Y-51500380D01*
X91797071Y-52500380D01*
X92701833Y-51500380D02*
X92511357Y-51500380D01*
X92416119Y-51548000D01*
X92368500Y-51595619D01*
X92273261Y-51738476D01*
X92225642Y-51928952D01*
X92225642Y-52309904D01*
X92273261Y-52405142D01*
X92320880Y-52452761D01*
X92416119Y-52500380D01*
X92606595Y-52500380D01*
X92701833Y-52452761D01*
X92749452Y-52405142D01*
X92797071Y-52309904D01*
X92797071Y-52071809D01*
X92749452Y-51976571D01*
X92701833Y-51928952D01*
X92606595Y-51881333D01*
X92416119Y-51881333D01*
X92320880Y-51928952D01*
X92273261Y-51976571D01*
X92225642Y-52071809D01*
X103596880Y-36298166D02*
X103120690Y-36631500D01*
X103596880Y-36869595D02*
X102596880Y-36869595D01*
X102596880Y-36488642D01*
X102644500Y-36393404D01*
X102692119Y-36345785D01*
X102787357Y-36298166D01*
X102930214Y-36298166D01*
X103025452Y-36345785D01*
X103073071Y-36393404D01*
X103120690Y-36488642D01*
X103120690Y-36869595D01*
X103596880Y-35345785D02*
X103596880Y-35917214D01*
X103596880Y-35631500D02*
X102596880Y-35631500D01*
X102739738Y-35726738D01*
X102834976Y-35821976D01*
X102882595Y-35917214D01*
X105275142Y-18021380D02*
X104941809Y-17545190D01*
X104703714Y-18021380D02*
X104703714Y-17021380D01*
X105084666Y-17021380D01*
X105179904Y-17069000D01*
X105227523Y-17116619D01*
X105275142Y-17211857D01*
X105275142Y-17354714D01*
X105227523Y-17449952D01*
X105179904Y-17497571D01*
X105084666Y-17545190D01*
X104703714Y-17545190D01*
X106227523Y-18021380D02*
X105656095Y-18021380D01*
X105941809Y-18021380D02*
X105941809Y-17021380D01*
X105846571Y-17164238D01*
X105751333Y-17259476D01*
X105656095Y-17307095D01*
X107084666Y-17354714D02*
X107084666Y-18021380D01*
X106846571Y-16973761D02*
X106608476Y-17688047D01*
X107227523Y-17688047D01*
X99723380Y-21042238D02*
X99247190Y-21375571D01*
X99723380Y-21613666D02*
X98723380Y-21613666D01*
X98723380Y-21232714D01*
X98771000Y-21137476D01*
X98818619Y-21089857D01*
X98913857Y-21042238D01*
X99056714Y-21042238D01*
X99151952Y-21089857D01*
X99199571Y-21137476D01*
X99247190Y-21232714D01*
X99247190Y-21613666D01*
X98723380Y-20756523D02*
X99723380Y-20423190D01*
X98723380Y-20089857D01*
X99723380Y-19232714D02*
X99723380Y-19804142D01*
X99723380Y-19518428D02*
X98723380Y-19518428D01*
X98866238Y-19613666D01*
X98961476Y-19708904D01*
X99009095Y-19804142D01*
X159223261Y-571404D02*
X159270880Y-428547D01*
X159270880Y-190452D01*
X159223261Y-95214D01*
X159175642Y-47595D01*
X159080404Y23D01*
X158985166Y23D01*
X158889928Y-47595D01*
X158842309Y-95214D01*
X158794690Y-190452D01*
X158747071Y-380928D01*
X158699452Y-476166D01*
X158651833Y-523785D01*
X158556595Y-571404D01*
X158461357Y-571404D01*
X158366119Y-523785D01*
X158318500Y-476166D01*
X158270880Y-380928D01*
X158270880Y-142833D01*
X158318500Y23D01*
X158270880Y333357D02*
X158270880Y1000023D01*
X159270880Y571452D01*
X159223261Y-13461904D02*
X159270880Y-13319047D01*
X159270880Y-13080952D01*
X159223261Y-12985714D01*
X159175642Y-12938095D01*
X159080404Y-12890476D01*
X158985166Y-12890476D01*
X158889928Y-12938095D01*
X158842309Y-12985714D01*
X158794690Y-13080952D01*
X158747071Y-13271428D01*
X158699452Y-13366666D01*
X158651833Y-13414285D01*
X158556595Y-13461904D01*
X158461357Y-13461904D01*
X158366119Y-13414285D01*
X158318500Y-13366666D01*
X158270880Y-13271428D01*
X158270880Y-13033333D01*
X158318500Y-12890476D01*
X158699452Y-12319047D02*
X158651833Y-12414285D01*
X158604214Y-12461904D01*
X158508976Y-12509523D01*
X158461357Y-12509523D01*
X158366119Y-12461904D01*
X158318500Y-12414285D01*
X158270880Y-12319047D01*
X158270880Y-12128571D01*
X158318500Y-12033333D01*
X158366119Y-11985714D01*
X158461357Y-11938095D01*
X158508976Y-11938095D01*
X158604214Y-11985714D01*
X158651833Y-12033333D01*
X158699452Y-12128571D01*
X158699452Y-12319047D01*
X158747071Y-12414285D01*
X158794690Y-12461904D01*
X158889928Y-12509523D01*
X159080404Y-12509523D01*
X159175642Y-12461904D01*
X159223261Y-12414285D01*
X159270880Y-12319047D01*
X159270880Y-12128571D01*
X159223261Y-12033333D01*
X159175642Y-11985714D01*
X159080404Y-11938095D01*
X158889928Y-11938095D01*
X158794690Y-11985714D01*
X158747071Y-12033333D01*
X158699452Y-12128571D01*
X159223261Y-26288904D02*
X159270880Y-26146047D01*
X159270880Y-25907952D01*
X159223261Y-25812714D01*
X159175642Y-25765095D01*
X159080404Y-25717476D01*
X158985166Y-25717476D01*
X158889928Y-25765095D01*
X158842309Y-25812714D01*
X158794690Y-25907952D01*
X158747071Y-26098428D01*
X158699452Y-26193666D01*
X158651833Y-26241285D01*
X158556595Y-26288904D01*
X158461357Y-26288904D01*
X158366119Y-26241285D01*
X158318500Y-26193666D01*
X158270880Y-26098428D01*
X158270880Y-25860333D01*
X158318500Y-25717476D01*
X159270880Y-25241285D02*
X159270880Y-25050809D01*
X159223261Y-24955571D01*
X159175642Y-24907952D01*
X159032785Y-24812714D01*
X158842309Y-24765095D01*
X158461357Y-24765095D01*
X158366119Y-24812714D01*
X158318500Y-24860333D01*
X158270880Y-24955571D01*
X158270880Y-25146047D01*
X158318500Y-25241285D01*
X158366119Y-25288904D01*
X158461357Y-25336523D01*
X158699452Y-25336523D01*
X158794690Y-25288904D01*
X158842309Y-25241285D01*
X158889928Y-25146047D01*
X158889928Y-24955571D01*
X158842309Y-24860333D01*
X158794690Y-24812714D01*
X158699452Y-24765095D01*
X96932976Y-52452761D02*
X97075833Y-52500380D01*
X97313928Y-52500380D01*
X97409166Y-52452761D01*
X97456785Y-52405142D01*
X97504404Y-52309904D01*
X97504404Y-52214666D01*
X97456785Y-52119428D01*
X97409166Y-52071809D01*
X97313928Y-52024190D01*
X97123452Y-51976571D01*
X97028214Y-51928952D01*
X96980595Y-51881333D01*
X96932976Y-51786095D01*
X96932976Y-51690857D01*
X96980595Y-51595619D01*
X97028214Y-51548000D01*
X97123452Y-51500380D01*
X97361547Y-51500380D01*
X97504404Y-51548000D01*
X97837738Y-51500380D02*
X98075833Y-52500380D01*
X98266309Y-51786095D01*
X98456785Y-52500380D01*
X98694880Y-51500380D01*
X99599642Y-52500380D02*
X99028214Y-52500380D01*
X99313928Y-52500380D02*
X99313928Y-51500380D01*
X99218690Y-51643238D01*
X99123452Y-51738476D01*
X99028214Y-51786095D01*
X100456785Y-51500380D02*
X100266309Y-51500380D01*
X100171071Y-51548000D01*
X100123452Y-51595619D01*
X100028214Y-51738476D01*
X99980595Y-51928952D01*
X99980595Y-52309904D01*
X100028214Y-52405142D01*
X100075833Y-52452761D01*
X100171071Y-52500380D01*
X100361547Y-52500380D01*
X100456785Y-52452761D01*
X100504404Y-52405142D01*
X100552023Y-52309904D01*
X100552023Y-52071809D01*
X100504404Y-51976571D01*
X100456785Y-51928952D01*
X100361547Y-51881333D01*
X100171071Y-51881333D01*
X100075833Y-51928952D01*
X100028214Y-51976571D01*
X99980595Y-52071809D01*
X104806976Y-52452761D02*
X104949833Y-52500380D01*
X105187928Y-52500380D01*
X105283166Y-52452761D01*
X105330785Y-52405142D01*
X105378404Y-52309904D01*
X105378404Y-52214666D01*
X105330785Y-52119428D01*
X105283166Y-52071809D01*
X105187928Y-52024190D01*
X104997452Y-51976571D01*
X104902214Y-51928952D01*
X104854595Y-51881333D01*
X104806976Y-51786095D01*
X104806976Y-51690857D01*
X104854595Y-51595619D01*
X104902214Y-51548000D01*
X104997452Y-51500380D01*
X105235547Y-51500380D01*
X105378404Y-51548000D01*
X105711738Y-51500380D02*
X105949833Y-52500380D01*
X106140309Y-51786095D01*
X106330785Y-52500380D01*
X106568880Y-51500380D01*
X107473642Y-52500380D02*
X106902214Y-52500380D01*
X107187928Y-52500380D02*
X107187928Y-51500380D01*
X107092690Y-51643238D01*
X106997452Y-51738476D01*
X106902214Y-51786095D01*
X107806976Y-51500380D02*
X108473642Y-51500380D01*
X108045071Y-52500380D01*
X112680976Y-52452761D02*
X112823833Y-52500380D01*
X113061928Y-52500380D01*
X113157166Y-52452761D01*
X113204785Y-52405142D01*
X113252404Y-52309904D01*
X113252404Y-52214666D01*
X113204785Y-52119428D01*
X113157166Y-52071809D01*
X113061928Y-52024190D01*
X112871452Y-51976571D01*
X112776214Y-51928952D01*
X112728595Y-51881333D01*
X112680976Y-51786095D01*
X112680976Y-51690857D01*
X112728595Y-51595619D01*
X112776214Y-51548000D01*
X112871452Y-51500380D01*
X113109547Y-51500380D01*
X113252404Y-51548000D01*
X113585738Y-51500380D02*
X113823833Y-52500380D01*
X114014309Y-51786095D01*
X114204785Y-52500380D01*
X114442880Y-51500380D01*
X115347642Y-52500380D02*
X114776214Y-52500380D01*
X115061928Y-52500380D02*
X115061928Y-51500380D01*
X114966690Y-51643238D01*
X114871452Y-51738476D01*
X114776214Y-51786095D01*
X115919071Y-51928952D02*
X115823833Y-51881333D01*
X115776214Y-51833714D01*
X115728595Y-51738476D01*
X115728595Y-51690857D01*
X115776214Y-51595619D01*
X115823833Y-51548000D01*
X115919071Y-51500380D01*
X116109547Y-51500380D01*
X116204785Y-51548000D01*
X116252404Y-51595619D01*
X116300023Y-51690857D01*
X116300023Y-51738476D01*
X116252404Y-51833714D01*
X116204785Y-51881333D01*
X116109547Y-51928952D01*
X115919071Y-51928952D01*
X115823833Y-51976571D01*
X115776214Y-52024190D01*
X115728595Y-52119428D01*
X115728595Y-52309904D01*
X115776214Y-52405142D01*
X115823833Y-52452761D01*
X115919071Y-52500380D01*
X116109547Y-52500380D01*
X116204785Y-52452761D01*
X116252404Y-52405142D01*
X116300023Y-52309904D01*
X116300023Y-52119428D01*
X116252404Y-52024190D01*
X116204785Y-51976571D01*
X116109547Y-51928952D01*
X120554976Y-52452761D02*
X120697833Y-52500380D01*
X120935928Y-52500380D01*
X121031166Y-52452761D01*
X121078785Y-52405142D01*
X121126404Y-52309904D01*
X121126404Y-52214666D01*
X121078785Y-52119428D01*
X121031166Y-52071809D01*
X120935928Y-52024190D01*
X120745452Y-51976571D01*
X120650214Y-51928952D01*
X120602595Y-51881333D01*
X120554976Y-51786095D01*
X120554976Y-51690857D01*
X120602595Y-51595619D01*
X120650214Y-51548000D01*
X120745452Y-51500380D01*
X120983547Y-51500380D01*
X121126404Y-51548000D01*
X121459738Y-51500380D02*
X121697833Y-52500380D01*
X121888309Y-51786095D01*
X122078785Y-52500380D01*
X122316880Y-51500380D01*
X123221642Y-52500380D02*
X122650214Y-52500380D01*
X122935928Y-52500380D02*
X122935928Y-51500380D01*
X122840690Y-51643238D01*
X122745452Y-51738476D01*
X122650214Y-51786095D01*
X123697833Y-52500380D02*
X123888309Y-52500380D01*
X123983547Y-52452761D01*
X124031166Y-52405142D01*
X124126404Y-52262285D01*
X124174023Y-52071809D01*
X124174023Y-51690857D01*
X124126404Y-51595619D01*
X124078785Y-51548000D01*
X123983547Y-51500380D01*
X123793071Y-51500380D01*
X123697833Y-51548000D01*
X123650214Y-51595619D01*
X123602595Y-51690857D01*
X123602595Y-51928952D01*
X123650214Y-52024190D01*
X123697833Y-52071809D01*
X123793071Y-52119428D01*
X123983547Y-52119428D01*
X124078785Y-52071809D01*
X124126404Y-52024190D01*
X124174023Y-51928952D01*
X101066695Y-29239980D02*
X101066695Y-30049504D01*
X101114314Y-30144742D01*
X101161933Y-30192361D01*
X101257171Y-30239980D01*
X101447647Y-30239980D01*
X101542885Y-30192361D01*
X101590504Y-30144742D01*
X101638123Y-30049504D01*
X101638123Y-29239980D01*
X102638123Y-30239980D02*
X102066695Y-30239980D01*
X102352409Y-30239980D02*
X102352409Y-29239980D01*
X102257171Y-29382838D01*
X102161933Y-29478076D01*
X102066695Y-29525695D01*
X93535595Y547619D02*
X93535595Y-261904D01*
X93583214Y-357142D01*
X93630833Y-404761D01*
X93726071Y-452380D01*
X93916547Y-452380D01*
X94011785Y-404761D01*
X94059404Y-357142D01*
X94107023Y-261904D01*
X94107023Y547619D01*
X94487976Y547619D02*
X95107023Y547619D01*
X94773690Y166666D01*
X94916547Y166666D01*
X95011785Y119047D01*
X95059404Y71428D01*
X95107023Y-23809D01*
X95107023Y-261904D01*
X95059404Y-357142D01*
X95011785Y-404761D01*
X94916547Y-452380D01*
X94630833Y-452380D01*
X94535595Y-404761D01*
X94487976Y-357142D01*
X127785880Y-44767404D02*
X128595404Y-44767404D01*
X128690642Y-44719785D01*
X128738261Y-44672166D01*
X128785880Y-44576928D01*
X128785880Y-44386452D01*
X128738261Y-44291214D01*
X128690642Y-44243595D01*
X128595404Y-44195976D01*
X127785880Y-44195976D01*
X128119214Y-43291214D02*
X128785880Y-43291214D01*
X127738261Y-43529309D02*
X128452547Y-43767404D01*
X128452547Y-43148357D01*
X111673380Y-44600761D02*
X111816238Y-44648380D01*
X112054333Y-44648380D01*
X112149571Y-44600761D01*
X112197190Y-44553142D01*
X112244809Y-44457904D01*
X112244809Y-44362666D01*
X112197190Y-44267428D01*
X112149571Y-44219809D01*
X112054333Y-44172190D01*
X111863857Y-44124571D01*
X111768619Y-44076952D01*
X111721000Y-44029333D01*
X111673380Y-43934095D01*
X111673380Y-43838857D01*
X111721000Y-43743619D01*
X111768619Y-43696000D01*
X111863857Y-43648380D01*
X112101952Y-43648380D01*
X112244809Y-43696000D01*
X112673380Y-44648380D02*
X112673380Y-43648380D01*
X113244809Y-44648380D01*
X113244809Y-43648380D01*
X113625761Y-43648380D02*
X114292428Y-43648380D01*
X113863857Y-44648380D01*
X115101952Y-43981714D02*
X115101952Y-44648380D01*
X114863857Y-43600761D02*
X114625761Y-44315047D01*
X115244809Y-44315047D01*
X115578142Y-44362666D02*
X116054333Y-44362666D01*
X115482904Y-44648380D02*
X115816238Y-43648380D01*
X116149571Y-44648380D01*
X116482904Y-44648380D02*
X116482904Y-43648380D01*
X116482904Y-44124571D02*
X117054333Y-44124571D01*
X117054333Y-44648380D02*
X117054333Y-43648380D01*
X118101952Y-44553142D02*
X118054333Y-44600761D01*
X117911476Y-44648380D01*
X117816238Y-44648380D01*
X117673380Y-44600761D01*
X117578142Y-44505523D01*
X117530523Y-44410285D01*
X117482904Y-44219809D01*
X117482904Y-44076952D01*
X117530523Y-43886476D01*
X117578142Y-43791238D01*
X117673380Y-43696000D01*
X117816238Y-43648380D01*
X117911476Y-43648380D01*
X118054333Y-43696000D01*
X118101952Y-43743619D01*
X118387666Y-43648380D02*
X118959095Y-43648380D01*
X118673380Y-44648380D02*
X118673380Y-43648380D01*
X119768619Y-43648380D02*
X119292428Y-43648380D01*
X119244809Y-44124571D01*
X119292428Y-44076952D01*
X119387666Y-44029333D01*
X119625761Y-44029333D01*
X119721000Y-44076952D01*
X119768619Y-44124571D01*
X119816238Y-44219809D01*
X119816238Y-44457904D01*
X119768619Y-44553142D01*
X119721000Y-44600761D01*
X119625761Y-44648380D01*
X119387666Y-44648380D01*
X119292428Y-44600761D01*
X119244809Y-44553142D01*
X120292428Y-44648380D02*
X120482904Y-44648380D01*
X120578142Y-44600761D01*
X120625761Y-44553142D01*
X120721000Y-44410285D01*
X120768619Y-44219809D01*
X120768619Y-43838857D01*
X120721000Y-43743619D01*
X120673380Y-43696000D01*
X120578142Y-43648380D01*
X120387666Y-43648380D01*
X120292428Y-43696000D01*
X120244809Y-43743619D01*
X120197190Y-43838857D01*
X120197190Y-44076952D01*
X120244809Y-44172190D01*
X120292428Y-44219809D01*
X120387666Y-44267428D01*
X120578142Y-44267428D01*
X120673380Y-44219809D01*
X120721000Y-44172190D01*
X120768619Y-44076952D01*
X121673380Y-43648380D02*
X121197190Y-43648380D01*
X121149571Y-44124571D01*
X121197190Y-44076952D01*
X121292428Y-44029333D01*
X121530523Y-44029333D01*
X121625761Y-44076952D01*
X121673380Y-44124571D01*
X121721000Y-44219809D01*
X121721000Y-44457904D01*
X121673380Y-44553142D01*
X121625761Y-44600761D01*
X121530523Y-44648380D01*
X121292428Y-44648380D01*
X121197190Y-44600761D01*
X121149571Y-44553142D01*
X122149571Y-44648380D02*
X122149571Y-43648380D01*
X122721000Y-44648380D01*
X122721000Y-43648380D01*
X109294680Y-47879000D02*
X109532776Y-47879000D01*
X109437538Y-48117095D02*
X109532776Y-47879000D01*
X109437538Y-47640904D01*
X109723252Y-48021857D02*
X109532776Y-47879000D01*
X109723252Y-47736142D01*
X109294680Y-47879000D02*
X109532776Y-47879000D01*
X109437538Y-48117095D02*
X109532776Y-47879000D01*
X109437538Y-47640904D01*
X109723252Y-48021857D02*
X109532776Y-47879000D01*
X109723252Y-47736142D01*
X66294095Y-45934380D02*
X66294095Y-46743904D01*
X66341714Y-46839142D01*
X66389333Y-46886761D01*
X66484571Y-46934380D01*
X66675047Y-46934380D01*
X66770285Y-46886761D01*
X66817904Y-46839142D01*
X66865523Y-46743904D01*
X66865523Y-45934380D01*
X67770285Y-45934380D02*
X67579809Y-45934380D01*
X67484571Y-45982000D01*
X67436952Y-46029619D01*
X67341714Y-46172476D01*
X67294095Y-46362952D01*
X67294095Y-46743904D01*
X67341714Y-46839142D01*
X67389333Y-46886761D01*
X67484571Y-46934380D01*
X67675047Y-46934380D01*
X67770285Y-46886761D01*
X67817904Y-46839142D01*
X67865523Y-46743904D01*
X67865523Y-46505809D01*
X67817904Y-46410571D01*
X67770285Y-46362952D01*
X67675047Y-46315333D01*
X67484571Y-46315333D01*
X67389333Y-46362952D01*
X67341714Y-46410571D01*
X67294095Y-46505809D01*
X86233095Y-45870880D02*
X86233095Y-46680404D01*
X86280714Y-46775642D01*
X86328333Y-46823261D01*
X86423571Y-46870880D01*
X86614047Y-46870880D01*
X86709285Y-46823261D01*
X86756904Y-46775642D01*
X86804523Y-46680404D01*
X86804523Y-45870880D01*
X87185476Y-45870880D02*
X87852142Y-45870880D01*
X87423571Y-46870880D01*
X97289880Y-37060095D02*
X96289880Y-37060095D01*
X96289880Y-36822000D01*
X96337500Y-36679142D01*
X96432738Y-36583904D01*
X96527976Y-36536285D01*
X96718452Y-36488666D01*
X96861309Y-36488666D01*
X97051785Y-36536285D01*
X97147023Y-36583904D01*
X97242261Y-36679142D01*
X97289880Y-36822000D01*
X97289880Y-37060095D01*
X97289880Y-35536285D02*
X97289880Y-36107714D01*
X97289880Y-35822000D02*
X96289880Y-35822000D01*
X96432738Y-35917238D01*
X96527976Y-36012476D01*
X96575595Y-36107714D01*
X99126380Y-32519904D02*
X98126380Y-32519904D01*
X99126380Y-31948476D02*
X98554952Y-32377047D01*
X98126380Y-31948476D02*
X98697809Y-32519904D01*
X81668880Y-47283595D02*
X80668880Y-47283595D01*
X80668880Y-47045500D01*
X80716500Y-46902642D01*
X80811738Y-46807404D01*
X80906976Y-46759785D01*
X81097452Y-46712166D01*
X81240309Y-46712166D01*
X81430785Y-46759785D01*
X81526023Y-46807404D01*
X81621261Y-46902642D01*
X81668880Y-47045500D01*
X81668880Y-47283595D01*
X80668880Y-45807404D02*
X80668880Y-46283595D01*
X81145071Y-46331214D01*
X81097452Y-46283595D01*
X81049833Y-46188357D01*
X81049833Y-45950261D01*
X81097452Y-45855023D01*
X81145071Y-45807404D01*
X81240309Y-45759785D01*
X81478404Y-45759785D01*
X81573642Y-45807404D01*
X81621261Y-45855023D01*
X81668880Y-45950261D01*
X81668880Y-46188357D01*
X81621261Y-46283595D01*
X81573642Y-46331214D01*
X81668880Y-44076904D02*
X80668880Y-44076904D01*
X81668880Y-43505476D02*
X81097452Y-43934047D01*
X80668880Y-43505476D02*
X81240309Y-44076904D01*
X67651404Y-39822380D02*
X67651404Y-38822380D01*
X67889500Y-38822380D01*
X68032357Y-38870000D01*
X68127595Y-38965238D01*
X68175214Y-39060476D01*
X68222833Y-39250952D01*
X68222833Y-39393809D01*
X68175214Y-39584285D01*
X68127595Y-39679523D01*
X68032357Y-39774761D01*
X67889500Y-39822380D01*
X67651404Y-39822380D01*
X69079976Y-38822380D02*
X68889500Y-38822380D01*
X68794261Y-38870000D01*
X68746642Y-38917619D01*
X68651404Y-39060476D01*
X68603785Y-39250952D01*
X68603785Y-39631904D01*
X68651404Y-39727142D01*
X68699023Y-39774761D01*
X68794261Y-39822380D01*
X68984738Y-39822380D01*
X69079976Y-39774761D01*
X69127595Y-39727142D01*
X69175214Y-39631904D01*
X69175214Y-39393809D01*
X69127595Y-39298571D01*
X69079976Y-39250952D01*
X68984738Y-39203333D01*
X68794261Y-39203333D01*
X68699023Y-39250952D01*
X68651404Y-39298571D01*
X68603785Y-39393809D01*
X69461095Y-39822380D02*
X69461095Y-38822380D01*
X70032523Y-39822380D02*
X69603952Y-39250952D01*
X70032523Y-38822380D02*
X69461095Y-39393809D01*
X136017095Y14144619D02*
X136017095Y13335095D01*
X136064714Y13239857D01*
X136112333Y13192238D01*
X136207571Y13144619D01*
X136398047Y13144619D01*
X136493285Y13192238D01*
X136540904Y13239857D01*
X136588523Y13335095D01*
X136588523Y14144619D01*
X137540904Y14144619D02*
X137064714Y14144619D01*
X137017095Y13668428D01*
X137064714Y13716047D01*
X137159952Y13763666D01*
X137398047Y13763666D01*
X137493285Y13716047D01*
X137540904Y13668428D01*
X137588523Y13573190D01*
X137588523Y13335095D01*
X137540904Y13239857D01*
X137493285Y13192238D01*
X137398047Y13144619D01*
X137159952Y13144619D01*
X137064714Y13192238D01*
X137017095Y13239857D01*
X136517095Y-38355380D02*
X136517095Y-39164904D01*
X136564714Y-39260142D01*
X136612333Y-39307761D01*
X136707571Y-39355380D01*
X136898047Y-39355380D01*
X136993285Y-39307761D01*
X137040904Y-39260142D01*
X137088523Y-39164904D01*
X137088523Y-38355380D01*
X137517095Y-39307761D02*
X137659952Y-39355380D01*
X137898047Y-39355380D01*
X137993285Y-39307761D01*
X138040904Y-39260142D01*
X138088523Y-39164904D01*
X138088523Y-39069666D01*
X138040904Y-38974428D01*
X137993285Y-38926809D01*
X137898047Y-38879190D01*
X137707571Y-38831571D01*
X137612333Y-38783952D01*
X137564714Y-38736333D01*
X137517095Y-38641095D01*
X137517095Y-38545857D01*
X137564714Y-38450619D01*
X137612333Y-38403000D01*
X137707571Y-38355380D01*
X137945666Y-38355380D01*
X138088523Y-38403000D01*
X138850428Y-38831571D02*
X138993285Y-38879190D01*
X139040904Y-38926809D01*
X139088523Y-39022047D01*
X139088523Y-39164904D01*
X139040904Y-39260142D01*
X138993285Y-39307761D01*
X138898047Y-39355380D01*
X138517095Y-39355380D01*
X138517095Y-38355380D01*
X138850428Y-38355380D01*
X138945666Y-38403000D01*
X138993285Y-38450619D01*
X139040904Y-38545857D01*
X139040904Y-38641095D01*
X138993285Y-38736333D01*
X138945666Y-38783952D01*
X138850428Y-38831571D01*
X138517095Y-38831571D01*
M02*
