G04 #@! TF.GenerationSoftware,KiCad,Pcbnew,5.1.5+dfsg1-2build2*
G04 #@! TF.CreationDate,2022-04-02T18:44:24-05:00*
G04 #@! TF.ProjectId,caden_final,63616465-6e5f-4666-996e-616c2e6b6963,rev?*
G04 #@! TF.SameCoordinates,Original*
G04 #@! TF.FileFunction,Paste,Bot*
G04 #@! TF.FilePolarity,Positive*
%FSLAX46Y46*%
G04 Gerber Fmt 4.6, Leading zero omitted, Abs format (unit mm)*
G04 Created by KiCad (PCBNEW 5.1.5+dfsg1-2build2) date 2022-04-02 18:44:24*
%MOMM*%
%LPD*%
G04 APERTURE LIST*
%ADD10C,0.120000*%
%ADD11R,2.300000X2.500000*%
%ADD12R,0.400000X0.550000*%
%ADD13R,1.000000X1.300000*%
%ADD14R,1.300000X1.000000*%
%ADD15R,1.000000X2.000000*%
%ADD16R,3.500000X2.000000*%
%ADD17R,1.524000X1.524000*%
G04 APERTURE END LIST*
D10*
X72156500Y-26513500D02*
X59256500Y-26513500D01*
X59256500Y-26513500D02*
X59256500Y-35463500D01*
X59256500Y-35463500D02*
X72156500Y-35463500D01*
X72156500Y-35413500D02*
X72156500Y-26513500D01*
D11*
X108685000Y-8958000D03*
X108685000Y-4658000D03*
D12*
X85515500Y-33566500D03*
X86515500Y-33566500D03*
X86015500Y-32116500D03*
X84574000Y-45286000D03*
X83574000Y-45286000D03*
X84074000Y-46736000D03*
X66619500Y-46852500D03*
X66119500Y-45402500D03*
X67119500Y-45402500D03*
D13*
X84963000Y-35179000D03*
X86995000Y-35179000D03*
X157543500Y-51879500D03*
X159575500Y-51879500D03*
X155130500Y-51689000D03*
X153098500Y-51689000D03*
X136842500Y-51689000D03*
X134810500Y-51689000D03*
X126936500Y-51689000D03*
X128968500Y-51689000D03*
X149796500Y-51689000D03*
X147764500Y-51689000D03*
X142684500Y-51689000D03*
X144716500Y-51689000D03*
D14*
X84074000Y-44005500D03*
X84074000Y-41973500D03*
X66611500Y-44005500D03*
X66611500Y-41973500D03*
D15*
X112980500Y776000D03*
X110680500Y776000D03*
X108380500Y776000D03*
D16*
X110680500Y7976000D03*
D17*
X124714000Y11597000D03*
X124714000Y9017000D03*
X124714000Y6477000D03*
X124714000Y3937000D03*
X124714000Y1397000D03*
X124714000Y-1143000D03*
X124714000Y-3683000D03*
X124714000Y-6223000D03*
X124714000Y-8763000D03*
X124714000Y-11303000D03*
X124714000Y-13843000D03*
X124714000Y-16383000D03*
X124714000Y-18923000D03*
X124714000Y-21463000D03*
X124714000Y-24003000D03*
X124714000Y-26543000D03*
X124714000Y-29083000D03*
X124714000Y-31623000D03*
X124714000Y-34163000D03*
X151384000Y11557000D03*
X151384000Y9017000D03*
X151384000Y6477000D03*
X151384000Y3937000D03*
X151384000Y1397000D03*
X151384000Y-1143000D03*
X151384000Y-3683000D03*
X151384000Y-6223000D03*
X151384000Y-8763000D03*
X151384000Y-11303000D03*
X151384000Y-13843000D03*
X151384000Y-16383000D03*
X151384000Y-18923000D03*
X151384000Y-21463000D03*
X151384000Y-24003000D03*
X151384000Y-26543000D03*
X151384000Y-29083000D03*
X151384000Y-31623000D03*
X151384000Y-34163000D03*
M02*
