G04 #@! TF.GenerationSoftware,KiCad,Pcbnew,5.1.5+dfsg1-2build2*
G04 #@! TF.CreationDate,2022-04-02T18:44:24-05:00*
G04 #@! TF.ProjectId,caden_final,63616465-6e5f-4666-996e-616c2e6b6963,rev?*
G04 #@! TF.SameCoordinates,Original*
G04 #@! TF.FileFunction,Paste,Top*
G04 #@! TF.FilePolarity,Positive*
%FSLAX46Y46*%
G04 Gerber Fmt 4.6, Leading zero omitted, Abs format (unit mm)*
G04 Created by KiCad (PCBNEW 5.1.5+dfsg1-2build2) date 2022-04-02 18:44:24*
%MOMM*%
%LPD*%
G04 APERTURE LIST*
%ADD10C,0.100000*%
%ADD11R,0.254000X0.812800*%
%ADD12R,0.177800X0.812800*%
%ADD13R,0.812800X0.254000*%
%ADD14R,2.250000X1.000000*%
%ADD15R,0.750000X0.800000*%
%ADD16R,2.000000X2.000000*%
%ADD17R,1.500000X0.400000*%
%ADD18R,1.110000X3.000000*%
G04 APERTURE END LIST*
D10*
G36*
X108470700Y-25666700D02*
G01*
X111671100Y-25666700D01*
X111671100Y-30060900D01*
X108470700Y-30060900D01*
X108470700Y-25666700D01*
G37*
X108470700Y-25666700D02*
X111671100Y-25666700D01*
X111671100Y-30060900D01*
X108470700Y-30060900D01*
X108470700Y-25666700D01*
D11*
X108105001Y-29959300D03*
D12*
X108559610Y-29959300D03*
D11*
X109070899Y-29959300D03*
X109570901Y-29959300D03*
X110070900Y-29959300D03*
X110570902Y-29959300D03*
X111070901Y-29959300D03*
D12*
X111582190Y-29959300D03*
D13*
X112331500Y-29232799D03*
X112331500Y-28732800D03*
X112331500Y-28232801D03*
X112331500Y-27732800D03*
X112331500Y-27232800D03*
X112331500Y-26732799D03*
X112331500Y-26232800D03*
X112331500Y-25732801D03*
D11*
X111604999Y-25006300D03*
X111105000Y-25006300D03*
X110605001Y-25006300D03*
X110105000Y-25006300D03*
X109605000Y-25006300D03*
X109104999Y-25006300D03*
X108605000Y-25006300D03*
X108105001Y-25006300D03*
D13*
X107378500Y-25732801D03*
X107378500Y-26232800D03*
X107378500Y-26732799D03*
X107378500Y-27232800D03*
X107378500Y-27732800D03*
X107378500Y-28232801D03*
X107378500Y-28732800D03*
X107378500Y-29232799D03*
D14*
X119189500Y2685000D03*
X119189500Y4935000D03*
D15*
X119126000Y-4813500D03*
X119126000Y-6413500D03*
D16*
X64856500Y-25463500D03*
X71056500Y-25463500D03*
X64856500Y-36463500D03*
X71056500Y-36463500D03*
D17*
X103158600Y-28437600D03*
X103158600Y-27787600D03*
X103158600Y-27137600D03*
X100498600Y-27137600D03*
X100498600Y-27787600D03*
X100498600Y-28437600D03*
D18*
X75311000Y-42684500D03*
X75311000Y-49974500D03*
X72771000Y-49974500D03*
X72771000Y-42684500D03*
X70171000Y-49974500D03*
X70171000Y-42684500D03*
X65151000Y-42684500D03*
X65151000Y-49974500D03*
X84137500Y-49962000D03*
X84137500Y-42672000D03*
X89157500Y-42672000D03*
X89157500Y-49962000D03*
X91757500Y-42672000D03*
X91757500Y-49962000D03*
X94297500Y-49962000D03*
X94297500Y-42672000D03*
M02*
